<?xml version="1.0" encoding="UTF-8"?>
<svg version="1.1" xmlns="http://www.w3.org/2000/svg" width="128" height="128">
<path d="M0 0 C42.24 0 84.48 0 128 0 C128 42.24 128 84.48 128 128 C85.76 128 43.52 128 0 128 C0 85.76 0 43.52 0 0 Z " fill="#EAE8DF" transform="translate(0,0)"/>
<path d="M0 0 C42.24 0 84.48 0 128 0 C128 4.62 128 9.24 128 14 C124.77251364 14.49838394 121.54967884 14.94935019 118.3125 15.375 C117.40048828 15.52066406 116.48847656 15.66632812 115.54882812 15.81640625 C108.86281272 16.64304088 108.86281272 16.64304088 106.35620117 14.77490234 C105.0625 13.171875 105.0625 13.171875 103 10 C100.65680444 8.49681794 98.45987208 7.24798541 96 6 C95.41605469 5.62617187 94.83210938 5.25234375 94.23046875 4.8671875 C88.13666729 1.19807757 81.95111667 1.23972161 75 2 C71.28783682 3.34405908 68.38342284 4.82210288 66 8 C65.5875 9.134375 65.175 10.26875 64.75 11.4375 C62.66530863 15.68133599 60.34424735 17.44359642 56 19 C53.29919931 19.55715818 50.76264018 19.80613051 48 20 C48 20.66 48 21.32 48 22 C46.39850114 22.67305018 44.79368971 23.33822227 43.1875 24 C42.29417969 24.37125 41.40085938 24.7425 40.48046875 25.125 C38 26 38 26 35 26 C35 26.66 35 27.32 35 28 C33.68 28 32.36 28 31 28 C30.67 29.32 30.34 30.64 30 32 C28.02 32.495 28.02 32.495 26 33 C25.87625 33.721875 25.7525 34.44375 25.625 35.1875 C24.60203473 39.79084373 24.0154778 42.3230148 20 45 C16.40200367 51.71933502 16.3334854 59.55982582 16 67 C16.66 67 17.32 67 18 67 C18 67.99 18 68.98 18 70 C18.66 70 19.32 70 20 70 C20 70.66 20 71.32 20 72 C20.99 72 21.98 72 23 72 C23 73.32 23 74.64 23 76 C24.216875 75.95875 25.43375 75.9175 26.6875 75.875 C30.21894127 75.86245492 32.80003566 76.40001783 36 78 C36 78.66 36 79.32 36 80 C37.051875 79.938125 38.10375 79.87625 39.1875 79.8125 C43 80 43 80 45.1484375 81.4765625 C49.20115497 83.64171293 52.90814041 83.4892771 57.4375 83.5625 C63.01073029 83.67887836 67.74935833 83.87413045 73 86 C73 86.33 73 86.66 73 87 C75.31 87.66 77.62 88.32 80 89 C80 89.66 80 90.32 80 91 C80.99 91 81.98 91 83 91 C83.13277344 91.61488281 83.26554687 92.22976562 83.40234375 92.86328125 C83.66724609 94.07564453 83.66724609 94.07564453 83.9375 95.3125 C84.19853516 96.51326172 84.19853516 96.51326172 84.46484375 97.73828125 C84.99886159 100.145401 84.99886159 100.145401 86 103 C86.66 103 87.32 103 88 103 C88 107.62 88 112.24 88 117 C84.04 117 80.08 117 76 117 C76 113.37 76 109.74 76 106 C78.64 106 81.28 106 84 106 C84 107.98 84 109.96 84 112 C83.01 112 82.02 112 81 112 C80.67 111.01 80.34 110.02 80 109 C78.515 108.505 78.515 108.505 77 108 C77.495 108.763125 77.99 109.52625 78.5 110.3125 C80 113 80 113 80 116 C81.98 115.67 83.96 115.34 86 115 C86 111.37 86 107.74 86 104 C84.35 104 82.7 104 81 104 C81 103.34 81 102.68 81 102 C79.515 101.505 79.515 101.505 78 101 C77.505 102.485 77.505 102.485 77 104 C75.68 104 74.36 104 73 104 C73 109.28 73 114.56 73 120 C77.29 120 81.58 120 86 120 C85.67 122.64 85.34 125.28 85 128 C56.95 128 28.9 128 0 128 C0 85.76 0 43.52 0 0 Z " fill="#C7C3C2" transform="translate(0,0)"/>
<path d="M0 0 C42.24 0 84.48 0 128 0 C128 4.62 128 9.24 128 14 C124.77251364 14.49838394 121.54967884 14.94935019 118.3125 15.375 C117.40048828 15.52066406 116.48847656 15.66632812 115.54882812 15.81640625 C108.86281272 16.64304088 108.86281272 16.64304088 106.35620117 14.77490234 C105.0625 13.171875 105.0625 13.171875 103 10 C100.65680444 8.49681794 98.45987208 7.24798541 96 6 C95.41605469 5.62617187 94.83210938 5.25234375 94.23046875 4.8671875 C88.13666729 1.19807757 81.95111667 1.23972161 75 2 C71.28783682 3.34405908 68.38342284 4.82210288 66 8 C65.5875 9.134375 65.175 10.26875 64.75 11.4375 C62.66530863 15.68133599 60.34424735 17.44359642 56 19 C53.29919931 19.55715818 50.76264018 19.80613051 48 20 C48 20.66 48 21.32 48 22 C46.39850114 22.67305018 44.79368971 23.33822227 43.1875 24 C42.29417969 24.37125 41.40085938 24.7425 40.48046875 25.125 C38 26 38 26 35 26 C35 26.66 35 27.32 35 28 C33.68 28 32.36 28 31 28 C30.67 29.32 30.34 30.64 30 32 C28.02 32.495 28.02 32.495 26 33 C25.87625 33.721875 25.7525 34.44375 25.625 35.1875 C24.60203473 39.79084373 24.0154778 42.3230148 20 45 C16.40200367 51.71933502 16.3334854 59.55982582 16 67 C16.66 67 17.32 67 18 67 C18.33 68.98 18.66 70.96 19 73 C19.66 73 20.32 73 21 73 C21.33 73.99 21.66 74.98 22 76 C22.66 76.33 23.32 76.66 24 77 C24 77.66 24 78.32 24 79 C24.66 79 25.32 79 26 79 C26 79.66 26 80.32 26 81 C25.195625 81.474375 24.39125 81.94875 23.5625 82.4375 C20.7081924 83.79983672 20.7081924 83.79983672 20 87 C13.4 87.33 6.8 87.66 0 88 C0 58.96 0 29.92 0 0 Z " fill="#080705" transform="translate(0,0)"/>
<path d="M0 0 C2.50007582 -0.02730665 4.9998449 -0.04698485 7.5 -0.0625 C8.54414062 -0.07506836 8.54414062 -0.07506836 9.609375 -0.08789062 C10.30546875 -0.09111328 11.0015625 -0.09433594 11.71875 -0.09765625 C12.34716797 -0.10289307 12.97558594 -0.10812988 13.62304688 -0.11352539 C17.09792817 0.05243802 20.54802173 0.56850272 24 1 C24 30.04 24 59.08 24 89 C15.42 89 6.84 89 -2 89 C-2 87.35 -2 85.7 -2 84 C-5.3 84 -8.6 84 -12 84 C-11.938125 82.55625 -11.87625 81.1125 -11.8125 79.625 C-11.80461052 74.08658811 -12.85710087 69.11150251 -15 64 C-15.66 63.34 -16.32 62.68 -17 62 C-17.3125 59 -17.3125 59 -17 56 C-12.4343151 52.95621007 -7.35294871 51.9732634 -2 51 C-1.896875 50.360625 -1.79375 49.72125 -1.6875 49.0625 C-1.460625 48.381875 -1.23375 47.70125 -1 47 C0.485 46.505 0.485 46.505 2 46 C2.33 44.35 2.66 42.7 3 41 C3.66 41 4.32 41 5 41 C4.88834374 37.22865098 4.75815996 33.45814615 4.625 29.6875 C4.5940625 28.63498047 4.563125 27.58246094 4.53125 26.49804688 C4.6864446 14.38641323 4.6864446 14.38641323 0 4 C0 2.68 0 1.36 0 0 Z " fill="#CEB08A" transform="translate(104,39)"/>
<path d="M0 0 C5.28 1.98 10.56 3.96 16 6 C16 6.66 16 7.32 16 8 C16.66 8 17.32 8 18 8 C22.74521158 14.32694877 23.27136815 21.4016918 23 29 C23.66 29 24.32 29 25 29 C23.375 35.75 23.375 35.75 20 38 C16.40200367 44.71933502 16.3334854 52.55982582 16 60 C16.66 60 17.32 60 18 60 C18.33 61.98 18.66 63.96 19 66 C19.66 66 20.32 66 21 66 C21.33 66.99 21.66 67.98 22 69 C22.66 69.33 23.32 69.66 24 70 C24 70.66 24 71.32 24 72 C24.66 72 25.32 72 26 72 C26 72.66 26 73.32 26 74 C25.195625 74.474375 24.39125 74.94875 23.5625 75.4375 C20.7081924 76.79983672 20.7081924 76.79983672 20 80 C13.4 80.33 6.8 80.66 0 81 C0 54.27 0 27.54 0 0 Z " fill="#040101" transform="translate(0,7)"/>
<path d="M0 0 C1.0415625 0.00902344 2.083125 0.01804687 3.15625 0.02734375 C4.31640625 0.04474609 4.31640625 0.04474609 5.5 0.0625 C5.83 1.3825 6.16 2.7025 6.5 4.0625 C7.63888672 4.15337891 7.63888672 4.15337891 8.80078125 4.24609375 C9.79464844 4.32988281 10.78851562 4.41367188 11.8125 4.5 C12.79863281 4.58121094 13.78476562 4.66242188 14.80078125 4.74609375 C17.5 5.0625 17.5 5.0625 20.5 6.0625 C20.5 6.7225 20.5 7.3825 20.5 8.0625 C21.16 8.0625 21.82 8.0625 22.5 8.0625 C23.16 11.3625 23.82 14.6625 24.5 18.0625 C23.51 18.0625 22.52 18.0625 21.5 18.0625 C20.84 17.0725 20.18 16.0825 19.5 15.0625 C18.51 14.7325 17.52 14.4025 16.5 14.0625 C17.16 15.3825 17.82 16.7025 18.5 18.0625 C16.52 18.0625 14.54 18.0625 12.5 18.0625 C13.49 20.0425 14.48 22.0225 15.5 24.0625 C15.83 23.0725 16.16 22.0825 16.5 21.0625 C18.15 21.0625 19.8 21.0625 21.5 21.0625 C20.84 23.0425 20.18 25.0225 19.5 27.0625 C18.84 27.0625 18.18 27.0625 17.5 27.0625 C17.5 29.0425 17.5 31.0225 17.5 33.0625 C16.18 33.0625 14.86 33.0625 13.5 33.0625 C13.5 33.7225 13.5 34.3825 13.5 35.0625 C14.82 35.0625 16.14 35.0625 17.5 35.0625 C16.84 37.0425 16.18 39.0225 15.5 41.0625 C5.6 41.0625 -4.3 41.0625 -14.5 41.0625 C-14.5 27.8625 -14.5 14.6625 -14.5 1.0625 C-9.39913203 0.4248915 -5.03334966 -0.05719716 0 0 Z " fill="#C8A177" transform="translate(14.5,86.9375)"/>
<path d="M0 0 C2.50007582 -0.02730665 4.9998449 -0.04698485 7.5 -0.0625 C8.54414062 -0.07506836 8.54414062 -0.07506836 9.609375 -0.08789062 C10.30546875 -0.09111328 11.0015625 -0.09433594 11.71875 -0.09765625 C12.34716797 -0.10289307 12.97558594 -0.10812988 13.62304688 -0.11352539 C17.09792817 0.05243802 20.54802173 0.56850272 24 1 C24 17.5 24 34 24 51 C3 50 3 50 1 49 C1 48.34 1 47.68 1 47 C1.66 47 2.32 47 3 47 C6.028896 39.58968211 6.45171126 32.32547101 6.70874023 24.42651367 C6.73524658 23.62576416 6.76175293 22.82501465 6.7890625 22 C6.80662598 21.278125 6.82418945 20.55625 6.84228516 19.8125 C7 18 7 18 8 16 C7.01 15.67 6.02 15.34 5 15 C3.8671875 12.890625 3.8671875 12.890625 2.875 10.25 C2.54242188 9.38890625 2.20984375 8.5278125 1.8671875 7.640625 C1.03382723 5.10300543 0.46319234 2.62790754 0 0 Z " fill="#482A22" transform="translate(104,39)"/>
<path d="M0 0 C3.95142546 -0.06883128 7.90132632 -0.1285718 11.85302734 -0.16479492 C13.85919374 -0.18732251 15.86516526 -0.2254357 17.87109375 -0.26367188 C19.12792969 -0.27333984 20.38476562 -0.28300781 21.6796875 -0.29296875 C22.84226074 -0.3086792 24.00483398 -0.32438965 25.20263672 -0.34057617 C26.1257666 -0.22818604 27.04889648 -0.1157959 28 0 C28.66 0.99 29.32 1.98 30 3 C30.33 2.01 30.66 1.02 31 0 C32.65 0 34.3 0 36 0 C35.34 1.98 34.68 3.96 34 6 C33.34 6 32.68 6 32 6 C32 7.98 32 9.96 32 12 C30.68 12 29.36 12 28 12 C28 12.66 28 13.32 28 14 C29.32 14 30.64 14 32 14 C31.34 15.98 30.68 17.96 30 20 C20.1 20 10.2 20 0 20 C0 13.4 0 6.8 0 0 Z " fill="#A28057" transform="translate(0,108)"/>
<path d="M0 0 C1.93719378 -0.05406122 3.87481921 -0.09282025 5.8125 -0.125 C6.89144531 -0.14820312 7.97039063 -0.17140625 9.08203125 -0.1953125 C12 0 12 0 15 2 C17.04705225 2.59739945 19.11233108 3.13409983 21.1875 3.625 C22.27417969 3.88539062 23.36085938 4.14578125 24.48046875 4.4140625 C25.31191406 4.60742188 26.14335938 4.80078125 27 5 C27.13277344 5.61488281 27.26554687 6.22976562 27.40234375 6.86328125 C27.57894531 7.67152344 27.75554687 8.47976562 27.9375 9.3125 C28.11152344 10.11300781 28.28554687 10.91351563 28.46484375 11.73828125 C28.99886159 14.145401 28.99886159 14.145401 30 17 C30.66 17 31.32 17 32 17 C32 21.62 32 26.24 32 31 C28.04 31 24.08 31 20 31 C20 27.37 20 23.74 20 20 C22.64 20 25.28 20 28 20 C28 21.98 28 23.96 28 26 C27.01 26 26.02 26 25 26 C24.67 25.01 24.34 24.02 24 23 C23.01 22.67 22.02 22.34 21 22 C21.495 22.763125 21.99 23.52625 22.5 24.3125 C24 27 24 27 24 30 C25.98 29.67 27.96 29.34 30 29 C30 25.37 30 21.74 30 18 C28.35 18 26.7 18 25 18 C25 17.34 25 16.68 25 16 C24.01 15.67 23.02 15.34 22 15 C21.67 15.99 21.34 16.98 21 18 C19.68 18 18.36 18 17 18 C17 23.28 17 28.56 17 34 C21.29 34 25.58 34 30 34 C29.67 36.64 29.34 39.28 29 42 C21.41 42 13.82 42 6 42 C7.32 40.02 8.64 38.04 10 36 C10.66 36.33 11.32 36.66 12 37 C12 37.66 12 38.32 12 39 C12.99 38.505 12.99 38.505 14 38 C13.79375 36.741875 13.5875 35.48375 13.375 34.1875 C12.72178784 28.56808579 13.76182483 23.47457617 15 18 C13.68 17.67 12.36 17.34 11 17 C11.639375 16.113125 12.27875 15.22625 12.9375 14.3125 C15.32164344 10.91630072 15.32164344 10.91630072 16 6 C10.72 5.34 5.44 4.68 0 4 C0 2.68 0 1.36 0 0 Z " fill="#B6B6B7" transform="translate(56,86)"/>
<path d="M0 0 C1.9375 0.3125 1.9375 0.3125 4 1 C4.33 1.99 4.66 2.98 5 4 C8.63 4 12.26 4 16 4 C16 2.68 16 1.36 16 0 C16.66 0 17.32 0 18 0 C18 1.32 18 2.64 18 4 C20.64 3.67 23.28 3.34 26 3 C26 3.99 26 4.98 26 6 C17.585 6.495 17.585 6.495 9 7 C8.01 8.98 7.02 10.96 6 13 C6.99 13 7.98 13 9 13 C9 11.68 9 10.36 9 9 C11.64 9 14.28 9 17 9 C17.33 11.31 17.66 13.62 18 16 C19.32 16 20.64 16 22 16 C22 14.35 22 12.7 22 11 C21.01 10.67 20.02 10.34 19 10 C20 9 20 9 22.5625 8.9375 C23.366875 8.958125 24.17125 8.97875 25 9 C25 11.97 25 14.94 25 18 C23.35 18 21.7 18 20 18 C20.433125 18.48210937 20.86625 18.96421875 21.3125 19.4609375 C21.869375 20.09257813 22.42625 20.72421875 23 21.375 C23.556875 22.00148438 24.11375 22.62796875 24.6875 23.2734375 C26 25 26 25 26 27 C17.09 27 8.18 27 -1 27 C-0.34 25.02 0.32 23.04 1 21 C-0.32 21 -1.64 21 -3 21 C-3 20.34 -3 19.68 -3 19 C-1.68 19 -0.36 19 1 19 C1 17.02 1 15.04 1 13 C1.66 12.67 2.32 12.34 3 12 C3.65213292 9.97536745 3.65213292 9.97536745 4 8 C2.68 7.67 1.36 7.34 0 7 C-0.33 8.32 -0.66 9.64 -1 11 C-4 7.375 -4 7.375 -4 4 C-2.35 3.67 -0.7 3.34 1 3 C0.67 2.01 0.34 1.02 0 0 Z " fill="#D7D8D5" transform="translate(31,101)"/>
<path d="M0 0 C8.91 0 17.82 0 27 0 C27 5.61 27 11.22 27 17 C18.42 17 9.84 17 1 17 C1 15.35 1 13.7 1 12 C-2.3 12 -5.6 12 -9 12 C-9 11.34 -9 10.68 -9 10 C-7.35 9.34 -5.7 8.68 -4 8 C-4 8.66 -4 9.32 -4 10 C-3.01 10 -2.02 10 -1 10 C-0.67 6.7 -0.34 3.4 0 0 Z " fill="#70492C" transform="translate(101,111)"/>
<path d="M0 0 C0 5.94 0 11.88 0 18 C-7.92 17.67 -15.84 17.34 -24 17 C-24 17.99 -24 18.98 -24 20 C-24.66 20 -25.32 20 -26 20 C-26 17.36 -26 14.72 -26 12 C-27.32 11.67 -28.64 11.34 -30 11 C-30 9.68 -30 8.36 -30 7 C-26.88462898 5.80645465 -23.75651699 4.65044383 -20.625 3.5 C-19.31982422 2.99919922 -19.31982422 2.99919922 -17.98828125 2.48828125 C-11.7273878 0.21580881 -6.65666358 -0.33583168 0 0 Z " fill="#BF9793" transform="translate(128,22)"/>
<path d="M0 0 C9.9 0 19.8 0 30 0 C30 4.62 30 9.24 30 14 C26.77251364 14.49838394 23.54967884 14.94935019 20.3125 15.375 C18.94448242 15.59349609 18.94448242 15.59349609 17.54882812 15.81640625 C10.8591849 16.64348941 10.8591849 16.64348941 8.3671875 14.77709961 C7.08203125 13.17578125 7.08203125 13.17578125 5 10 C3.17870377 8.63223213 3.17870377 8.63223213 1.375 7.8125 C-1.34778984 6.35026101 -3.04065181 5.30511551 -5 3 C-3.35 2.67 -1.7 2.34 0 2 C0 1.34 0 0.68 0 0 Z " fill="#41260C" transform="translate(98,0)"/>
<path d="M0 0 C6.625 0.75 6.625 0.75 10 3 C10 3.66 10 4.32 10 5 C10.66 5 11.32 5 12 5 C12 5.99 12 6.98 12 8 C12.78375 8.185625 13.5675 8.37125 14.375 8.5625 C17 10 17 10 18.25 13.1875 C18.95740534 16.78347716 19.50177758 20.37009383 20 24 C20.33 24.66 20.66 25.32 21 26 C19.25 28.0625 19.25 28.0625 17 30 C14.8125 29.875 14.8125 29.875 13 29 C12.67 28.34 12.34 27.68 12 27 C9.74935841 26.55614837 7.50658148 26.29957811 5.2265625 26.05078125 C2.36986242 24.70261928 1.59505282 23.01382556 0.51855469 20.10571289 C-0.4265983 16.26769759 -0.31094648 12.49063042 -0.1875 8.5625 C-0.17396484 7.73556641 -0.16042969 6.90863281 -0.14648438 6.05664062 C-0.11146992 4.0374736 -0.05767562 2.01864682 0 0 Z " fill="#795E59" transform="translate(0,12)"/>
<path d="M0 0 C0.66 0 1.32 0 2 0 C2 0.99 2 1.98 2 3 C3.32 2.67 4.64 2.34 6 2 C6.33 3.65 6.66 5.3 7 7 C9.31 7 11.62 7 14 7 C14 7.66 14 8.32 14 9 C20.85988773 9.94870788 27.14011227 9.94870788 34 9 C34 11.31 34 13.62 34 16 C32.88625 16.45375 31.7725 16.9075 30.625 17.375 C27.03800992 18.72465986 27.03800992 18.72465986 25 21 C22.7578125 21.046875 22.7578125 21.046875 20.125 20.75 C19.26132812 20.66234375 18.39765625 20.5746875 17.5078125 20.484375 C15.00386407 20.00074633 13.24277313 19.17321536 11 18 C10.05125 17.896875 9.1025 17.79375 8.125 17.6875 C3.82363169 16.74119897 2.11195667 15.11195667 -1 12 C-1.875 9.6875 -1.875 9.6875 -2 8 C-2.66 8 -3.32 8 -4 8 C-4 6.35 -4 4.7 -4 3 C-3.01 3 -2.02 3 -1 3 C-0.67 2.01 -0.34 1.02 0 0 Z " fill="#C3B2AC" transform="translate(36,52)"/>
<path d="M0 0 C5.28 1.98 10.56 3.96 16 6 C16 6.66 16 7.32 16 8 C16.66 8 17.32 8 18 8 C22.74521158 14.32694877 23.27136815 21.4016918 23 29 C23.66 29 24.32 29 25 29 C23.375 35.75 23.375 35.75 20 38 C18.99194445 40.17897492 18.99194445 40.17897492 18.3125 42.625 C18.06113281 43.44226562 17.80976563 44.25953125 17.55078125 45.1015625 C17.36902344 45.72804687 17.18726562 46.35453125 17 47 C16.67 47 16.34 47 16 47 C16 45.02 16 43.04 16 41 C14.989375 40.938125 13.97875 40.87625 12.9375 40.8125 C8.29346444 40.1680216 5.55584773 37.97530116 2 35 C2 34.34 2 33.68 2 33 C1.34 33 0.68 33 0 33 C0 29.7 0 26.4 0 23 C2 25 2 25 2.8359375 27.015625 C4.38729222 29.66021626 5.72265768 29.92075934 8.625 30.75 C9.85089844 31.11351562 9.85089844 31.11351562 11.1015625 31.484375 C11.72804688 31.65453125 12.35453125 31.8246875 13 32 C13 32.66 13 33.32 13 34 C15.97 33.505 15.97 33.505 19 33 C19.33 32.01 19.66 31.02 20 30 C19.34 29.01 18.68 28.02 18 27 C18 24.66666667 18 22.33333333 18 20 C17.13870483 16.77014312 16.73664583 15.45498713 13.875 13.6875 C13.25625 13.460625 12.6375 13.23375 12 13 C12 12.01 12 11.02 12 10 C11.34 10 10.68 10 10 10 C10 9.34 10 8.68 10 8 C6.7 7.01 3.4 6.02 0 5 C0 3.35 0 1.7 0 0 Z " fill="#593F3E" transform="translate(0,7)"/>
<path d="M0 0 C2 3 2 3 2 6 C2.66 6 3.32 6 4 6 C4.33 6.99 4.66 7.98 5 9 C5.66 9.33 6.32 9.66 7 10 C7 10.66 7 11.32 7 12 C7.66 12 8.32 12 9 12 C9 12.66 9 13.32 9 14 C8.195625 14.474375 7.39125 14.94875 6.5625 15.4375 C3.7081924 16.79983672 3.7081924 16.79983672 3 20 C-3.6 20.33 -10.2 20.66 -17 21 C-17 14.73 -17 8.46 -17 2 C-14.03 2.495 -14.03 2.495 -11 3 C-11.99 3.495 -11.99 3.495 -13 4 C-13 4.66 -13 5.32 -13 6 C-6.07 6.495 -6.07 6.495 1 7 C0.67 4.69 0.34 2.38 0 0 Z " fill="#553A30" transform="translate(17,67)"/>
<path d="M0 0 C0.33 1.32 0.66 2.64 1 4 C2.13888672 4.09087891 2.13888672 4.09087891 3.30078125 4.18359375 C4.29464844 4.26738281 5.28851562 4.35117188 6.3125 4.4375 C7.29863281 4.51871094 8.28476562 4.59992188 9.30078125 4.68359375 C12 5 12 5 15 6 C15 6.66 15 7.32 15 8 C15.66 8 16.32 8 17 8 C17.66 11.3 18.32 14.6 19 18 C18.01 18 17.02 18 16 18 C13.8125 15.5 13.8125 15.5 12 13 C12.33 12.67 12.66 12.34 13 12 C9.52852158 11.25042843 9.52852158 11.25042843 6 11 C4.62426759 10.86124587 3.24939637 10.71391655 1.875 10.5625 C-5.40033035 9.81356893 -12.70010891 9.42567603 -20 9 C-20 6.36 -20 3.72 -20 1 C-13.30324864 -0.03026944 -6.7685324 -0.10152799 0 0 Z " fill="#C3A074" transform="translate(20,87)"/>
<path d="M0 0 C0 0.66 0 1.32 0 2 C1.98 2 3.96 2 6 2 C6 2.99 6 3.98 6 5 C4.68 5 3.36 5 2 5 C2 5.66 2 6.32 2 7 C3.32 7 4.64 7 6 7 C5.34 8.98 4.68 10.96 4 13 C-5.9 13 -15.8 13 -26 13 C-26 11.68 -26 10.36 -26 9 C-5.19672131 0 -5.19672131 0 0 0 Z " fill="#7E5C40" transform="translate(26,115)"/>
<path d="M0 0 C0 6.6 0 13.2 0 20 C-4.95 19.67 -9.9 19.34 -15 19 C-14.67 18.34 -14.34 17.68 -14 17 C-10.9375 16.375 -10.9375 16.375 -8 16 C-10.31 15.01 -12.62 14.02 -15 13 C-15.33 9.04 -15.66 5.08 -16 1 C-10.46346649 0.20906664 -5.72195861 0 0 0 Z " fill="#270B0D" transform="translate(128,60)"/>
<path d="M0 0 C16.8929385 -0.18451025 16.8929385 -0.18451025 24 1 C24 4.63 24 8.26 24 12 C21.56288386 12.19484938 19.12562602 12.38115178 16.6875 12.5625 C15.99720703 12.61857422 15.30691406 12.67464844 14.59570312 12.73242188 C11.37487726 12.96581505 9.09672655 13.03224218 6 12 C6 11.34 6 10.68 6 10 C5.01 9.67 4.02 9.34 3 9 C0.53447933 5.62132353 0 4.29441798 0 0 Z " fill="#0B0414" transform="translate(104,39)"/>
<path d="M0 0 C0.66 0 1.32 0 2 0 C2 1.32 2 2.64 2 4 C4.97 4 7.94 4 11 4 C10.67 6.31 10.34 8.62 10 11 C8.62437146 9.71034824 7.29233607 8.37310707 6 7 C6 6.34 6 5.68 6 5 C5.01 5.495 5.01 5.495 4 6 C5.37843408 9.5653557 5.37843408 9.5653557 7.20703125 12.91015625 C8 15 8 15 7.20703125 17.10546875 C6.74683594 17.79253906 6.28664063 18.47960937 5.8125 19.1875 C5.14154297 20.22970703 5.14154297 20.22970703 4.45703125 21.29296875 C3 23 3 23 0 24 C-1.00593243 22.8803014 -2.0045849 21.7540588 -3 20.625 C-3.556875 19.99851562 -4.11375 19.37203125 -4.6875 18.7265625 C-6 17 -6 17 -6 15 C-4.35 15 -2.7 15 -1 15 C-1 12.03 -1 9.06 -1 6 C-2.65 6.33 -4.3 6.66 -6 7 C-5.34 7.33 -4.68 7.66 -4 8 C-4 9.65 -4 11.3 -4 13 C-5.32 13 -6.64 13 -8 13 C-8.33 10.69 -8.66 8.38 -9 6 C-11.64 6 -14.28 6 -17 6 C-17 7.32 -17 8.64 -17 10 C-17.99 10 -18.98 10 -20 10 C-18.125 4.125 -18.125 4.125 -17 3 C-14.13732433 2.92674832 -11.299281 2.90761795 -8.4375 2.9375 C-7.63119141 2.94201172 -6.82488281 2.94652344 -5.99414062 2.95117188 C-3.99606244 2.96299482 -1.99802217 2.98093086 0 3 C0 2.01 0 1.02 0 0 Z " fill="#BBBCB6" transform="translate(57,104)"/>
<path d="M0 0 C7.92 0 15.84 0 24 0 C24 3.3 24 6.6 24 10 C15.60995285 10.13605482 7.35619957 9.75475351 -1 9 C-0.67 8.01 -0.34 7.02 0 6 C-0.66 5.67 -1.32 5.34 -2 5 C-2 4.01 -2 3.02 -2 2 C-1.34 2 -0.68 2 0 2 C0 1.34 0 0.68 0 0 Z " fill="#BE9B71" transform="translate(104,101)"/>
<path d="M0 0 C0.33 0.99 0.66 1.98 1 3 C0.34 3 -0.32 3 -1 3 C-1 3.99 -1 4.98 -1 6 C4.94 6 10.88 6 17 6 C17 6.33 17 6.66 17 7 C15.85660156 7.04898438 14.71320313 7.09796875 13.53515625 7.1484375 C12.04424527 7.22345189 10.55336108 7.29900028 9.0625 7.375 C7.93038086 7.42140625 7.93038086 7.42140625 6.77539062 7.46875 C4.84492605 7.5726315 2.92057919 7.77895614 1 8 C0.67 8.66 0.34 9.32 0 10 C4.29 10 8.58 10 13 10 C13 10.33 13 10.66 13 11 C8.05 11 3.1 11 -2 11 C-2 13.31 -2 15.62 -2 18 C-2.33 18.99 -2.66 19.98 -3 21 C-3.5775 20.814375 -4.155 20.62875 -4.75 20.4375 C-7.30393357 19.7761831 -7.30393357 19.7761831 -11 21 C-10.67 17.37 -10.34 13.74 -10 10 C-9.34 10 -8.68 10 -8 10 C-8.99 9.01 -9.98 8.02 -11 7 C-10.39816251 4.97954558 -9.72693904 2.97888961 -9 1 C-6.04335481 -0.4783226 -3.25770263 -0.06032783 0 0 Z " fill="#AB8A67" transform="translate(103,100)"/>
<path d="M0 0 C1.9375 0.3125 1.9375 0.3125 4 1 C4.33 1.99 4.66 2.98 5 4 C8.63 4 12.26 4 16 4 C16 2.68 16 1.36 16 0 C16.66 0 17.32 0 18 0 C18 1.32 18 2.64 18 4 C20.64 3.67 23.28 3.34 26 3 C26 3.99 26 4.98 26 6 C17.585 6.495 17.585 6.495 9 7 C8.01 8.98 7.02 10.96 6 13 C6.99 13 7.98 13 9 13 C9 13.66 9 14.32 9 15 C7.35 15 5.7 15 4 15 C4.33 15.99 4.66 16.98 5 18 C5.99 18.33 6.98 18.66 8 19 C8 19.66 8 20.32 8 21 C6.68 21 5.36 21 4 21 C3.67 22.98 3.34 24.96 3 27 C1.68 27 0.36 27 -1 27 C-0.34 25.02 0.32 23.04 1 21 C-0.32 21 -1.64 21 -3 21 C-3 20.34 -3 19.68 -3 19 C-1.68 19 -0.36 19 1 19 C1 17.02 1 15.04 1 13 C1.66 12.67 2.32 12.34 3 12 C3.65213292 9.97536745 3.65213292 9.97536745 4 8 C2.68 7.67 1.36 7.34 0 7 C-0.33 8.32 -0.66 9.64 -1 11 C-4 7.375 -4 7.375 -4 4 C-2.35 3.67 -0.7 3.34 1 3 C0.67 2.01 0.34 1.02 0 0 Z " fill="#F5F7F2" transform="translate(31,101)"/>
<path d="M0 0 C8.58 0 17.16 0 26 0 C26 3.3 26 6.6 26 10 C22.2978182 10.92554545 21.30259631 11.09327165 17.875 10.1875 C17.19179687 10.01605469 16.50859375 9.84460938 15.8046875 9.66796875 C14 9 14 9 12 7 C12.66 7 13.32 7 14 7 C14 6.34 14 5.68 14 5 C9.71 5 5.42 5 1 5 C0.67 3.35 0.34 1.7 0 0 Z " fill="#A27951" transform="translate(102,113)"/>
<path d="M0 0 C1.32 0.33 2.64 0.66 4 1 C3.67 1.66 3.34 2.32 3 3 C4.65 3 6.3 3 8 3 C8 6.63 8 10.26 8 14 C6.02 14.33 4.04 14.66 2 15 C0.92474806 12.34771188 -0.09456151 9.71631546 -1 7 C0.875 7.3125 0.875 7.3125 3 8 C3.99 9.485 3.99 9.485 5 11 C5.33 9.02 5.66 7.04 6 5 C3.36 5 0.72 5 -2 5 C-2 8.63 -2 12.26 -2 16 C2.29 16 6.58 16 11 16 C10.67 19.63 10.34 23.26 10 27 C9.01 27 8.02 27 7 27 C7.33 24.36 7.66 21.72 8 19 C3.71 19 -0.58 19 -5 19 C-5 13.72 -5 8.44 -5 3 C-3.68 2.67 -2.36 2.34 -1 2 C-0.67 1.34 -0.34 0.68 0 0 Z " fill="#F4F6F2" transform="translate(78,101)"/>
<path d="M0 0 C15.18 0 30.36 0 46 0 C46 0.33 46 0.66 46 1 C40.72 1 35.44 1 30 1 C30 1.99 30 2.98 30 4 C28 5 28 5 25.4375 4.875 C22.17587174 4.99360466 20.41218735 5.52241412 17.4375 6.6875 C13.39070723 8.1435251 13.39070723 8.1435251 9.9375 6.875 C9.298125 6.25625 8.65875 5.6375 8 5 C8 4.01 8 3.02 8 2 C7.34 2 6.68 2 6 2 C6 3.32 6 4.64 6 6 C4.02 6 2.04 6 0 6 C0 4.02 0 2.04 0 0 Z " fill="#221F1A" transform="translate(6,0)"/>
<path d="M0 0 C0.66 0 1.32 0 2 0 C2 0.66 2 1.32 2 2 C7.94 2 13.88 2 20 2 C20 4.97 20 7.94 20 11 C12.08 11.495 12.08 11.495 4 12 C4 16.62 4 21.24 4 26 C3.67 26 3.34 26 3 26 C2.97310551 23.04160645 2.95321259 20.08345573 2.9375 17.125 C2.92912109 16.28324219 2.92074219 15.44148438 2.91210938 14.57421875 C2.90888672 13.76855469 2.90566406 12.96289062 2.90234375 12.1328125 C2.89710693 11.38918457 2.89187012 10.64555664 2.88647461 9.87939453 C3 8 3 8 4 6 C3.01 5.67 2.02 5.34 1 5 C0.67 3.35 0.34 1.7 0 0 Z " fill="#503635" transform="translate(108,49)"/>
<path d="M0 0 C0 2.64 0 5.28 0 8 C-1.30324219 8.18175781 -1.30324219 8.18175781 -2.6328125 8.3671875 C-3.78523438 8.53476562 -4.93765625 8.70234375 -6.125 8.875 C-7.26195313 9.03742187 -8.39890625 9.19984375 -9.5703125 9.3671875 C-12.99494779 9.91526503 -12.99494779 9.91526503 -16.15625 11.0625 C-19.97392873 12.32107541 -23.00618832 12.13771764 -27 12 C-27.33 11.34 -27.66 10.68 -28 10 C-26.2421875 9.34895833 -24.484375 8.69791667 -22.7265625 8.046875 C-20.82829121 7.11346767 -20.82829121 7.11346767 -20.05859375 5 C-19 3 -19 3 -16.93359375 1.953125 C-11.08638515 0.30602399 -6.07460627 -0.29393256 0 0 Z " fill="#F0F0E1" transform="translate(128,14)"/>
<path d="M0 0 C0.66 0.268125 1.32 0.53625 2 0.8125 C4.34969008 1.74258566 6.70134426 2.66217146 9.0625 3.5625 C9.71347656 3.81128906 10.36445312 4.06007813 11.03515625 4.31640625 C15.27844268 5.79269875 19.26073232 6.24825126 23.75 6.5625 C24.92046875 6.64628906 26.0909375 6.73007812 27.296875 6.81640625 C28.18890625 6.87699219 29.0809375 6.93757813 30 7 C30 9.31 30 11.62 30 14 C21.8957346 13.63981043 21.8957346 13.63981043 17.9375 10.8125 C15.26789106 8.76255835 15.26789106 8.76255835 12.85546875 9.18359375 C10.87475835 9.68657625 8.93194205 10.33381308 7 11 C6.34 10.01 5.68 9.02 5 8 C1.93443402 7.26656572 1.93443402 7.26656572 -1 7 C-1.625 4.625 -1.625 4.625 -2 2 C-1.34 1.34 -0.68 0.68 0 0 Z " fill="#C7C1B8" transform="translate(43,41)"/>
<path d="M0 0 C3.96 0 7.92 0 12 0 C12.07440711 4.16679796 12.04236619 8.12450241 11.4375 12.25 C11.07321855 15.37241246 10.9220787 17.12554319 12 20 C11.01 20.33 10.02 20.66 9 21 C8.67 20.34 8.34 19.68 8 19 C6.35 20.65 4.7 22.3 3 24 C2.01 23.67 1.02 23.34 0 23 C1.65 20.03 3.3 17.06 5 14 C4.319375 13.071875 3.63875 12.14375 2.9375 11.1875 C2.298125 10.135625 1.65875 9.08375 1 8 C1.33 7.01 1.66 6.02 2 5 C2.66 5 3.32 5 4 5 C5.625 7.5 5.625 7.5 7 10 C7.66 8.02 8.32 6.04 9 4 C6.03 4 3.06 4 0 4 C0 2.68 0 1.36 0 0 Z " fill="#F1F3EF" transform="translate(59,104)"/>
<path d="M0 0 C0.70213623 0.64743164 1.40427246 1.29486328 2.12768555 1.96191406 C5.40474818 4.28719404 6.99475642 4.52809757 10.95703125 4.609375 C12.62475586 4.65771484 12.62475586 4.65771484 14.32617188 4.70703125 C15.47666016 4.72121094 16.62714844 4.73539063 17.8125 4.75 C18.98232422 4.77964844 20.15214844 4.80929688 21.35742188 4.83984375 C24.23835009 4.91039709 27.11847578 4.96316729 30 5 C30 6.98 30 8.96 30 11 C22.08 10.67 14.16 10.34 6 10 C6 10.99 6 11.98 6 13 C5.34 13 4.68 13 4 13 C4 10.36 4 7.72 4 5 C2.68 4.67 1.36 4.34 0 4 C0 2.68 0 1.36 0 0 Z " fill="#A9A0A2" transform="translate(98,29)"/>
<path d="M0 0 C5.28 0 10.56 0 16 0 C16 0.66 16 1.32 16 2 C17.13888672 2.09087891 17.13888672 2.09087891 18.30078125 2.18359375 C19.29464844 2.26738281 20.28851562 2.35117188 21.3125 2.4375 C22.29863281 2.51871094 23.28476562 2.59992188 24.30078125 2.68359375 C27 3 27 3 30 4 C30 4.66 30 5.32 30 6 C30.66 6 31.32 6 32 6 C32.66 9.3 33.32 12.6 34 16 C33.01 16 32.02 16 31 16 C28.8125 13.5 28.8125 13.5 27 11 C27.33 10.67 27.66 10.34 28 10 C27.2575 9.855625 26.515 9.71125 25.75 9.5625 C24.20026249 9.24550824 22.65341452 8.90757721 21.125 8.5 C18.11151377 7.79094442 15.06610711 7.41274519 12 7 C12 6.67 12 6.34 12 6 C14.64 5.67 17.28 5.34 20 5 C15.75266168 4.01857619 11.52675467 3.69079621 7.1875 3.4375 C6.14819336 3.37272461 6.14819336 3.37272461 5.08789062 3.30664062 C3.39211314 3.20138547 1.69607948 3.10027137 0 3 C0 2.01 0 1.02 0 0 Z " fill="#CAAD7F" transform="translate(5,89)"/>
<path d="M0 0 C3.96 0 7.92 0 12 0 C12.12552301 8.41004184 12.12552301 8.41004184 11.375 11.9375 C11.25125 12.618125 11.1275 13.29875 11 14 C11.66 14.66 12.32 15.32 13 16 C11.25 15.8125 11.25 15.8125 9 15 C8.1028125 13.8553125 8.1028125 13.8553125 7.1875 12.6875 C5.18691825 10.22964243 4.11093906 9.32966537 1.4375 7.875 C-1.30025108 6.38168123 -3.02478975 5.32377677 -5 3 C-3.35 2.67 -1.7 2.34 0 2 C0 1.34 0 0.68 0 0 Z " fill="#7E5538" transform="translate(98,0)"/>
<path d="M0 0 C2.31 0 4.62 0 7 0 C7.33 2.31 7.66 4.62 8 7 C9.32 7 10.64 7 12 7 C12 5.35 12 3.7 12 2 C11.01 1.67 10.02 1.34 9 1 C10 0 10 0 12.5625 -0.0625 C13.7690625 -0.0315625 13.7690625 -0.0315625 15 0 C15 2.97 15 5.94 15 9 C13.35 9 11.7 9 10 9 C10.433125 9.48210937 10.86625 9.96421875 11.3125 10.4609375 C11.869375 11.09257813 12.42625 11.72421875 13 12.375 C13.8353125 13.31472656 13.8353125 13.31472656 14.6875 14.2734375 C16 16 16 16 16 18 C12.7 18 9.4 18 6 18 C4.47365077 14.94730154 5.16205556 12.24154311 5.4375 8.875 C5.53933594 7.59367187 5.64117187 6.31234375 5.74609375 4.9921875 C5.87177734 3.51105469 5.87177734 3.51105469 6 2 C4.68 2 3.36 2 2 2 C1.67 3.32 1.34 4.64 1 6 C0 5 0 5 -0.0625 2.4375 C-0.041875 1.633125 -0.02125 0.82875 0 0 Z " fill="#F8F9F5" transform="translate(41,110)"/>
<path d="M0 0 C0.66 0 1.32 0 2 0 C2.66 0.99 3.32 1.98 4 3 C6.43693311 3.36416047 6.43693311 3.36416047 9.125 3.1875 C10.49011719 3.14689453 10.49011719 3.14689453 11.8828125 3.10546875 C12.58148438 3.07066406 13.28015625 3.03585938 14 3 C14 3.66 14 4.32 14 5 C20.03554548 5.69260358 25.92406438 6.11251733 32 6 C31.67 6.99 31.34 7.98 31 9 C26.06208162 11.34551123 21.33555495 11.2134222 16 11 C16 10.01 16 9.02 16 8 C15.41992188 8.11859375 14.83984375 8.2371875 14.2421875 8.359375 C9.87578378 9.07990367 7.61630136 9.28613992 3.5 7.375 C0.81031452 4.8197988 0.20245185 3.64413322 0 0 Z " fill="#BEB5AC" transform="translate(36,56)"/>
<path d="M0 0 C0.66 0 1.32 0 2 0 C1.67 1.65 1.34 3.3 1 5 C1.825 4.835 2.65 4.67 3.5 4.5 C7.41272317 3.94103955 11.05183173 3.93192813 15 4 C15 7.63 15 11.26 15 15 C10.05 14.67 5.1 14.34 0 14 C0.33 13.34 0.66 12.68 1 12 C4.0625 11.375 4.0625 11.375 7 11 C4.69 10.01 2.38 9.02 0 8 C0 5.36 0 2.72 0 0 Z " fill="#3C1914" transform="translate(113,65)"/>
<path d="M0 0 C16.42174965 -0.18336941 16.42174965 -0.18336941 24.27734375 0.87890625 C24.84582031 0.91886719 25.41429688 0.95882812 26 1 C26.33 0.67 26.66 0.34 27 0 C29.4375 -0.25 29.4375 -0.25 32 0 C32.66 0.99 33.32 1.98 34 3 C33.4740625 3.928125 33.4740625 3.928125 32.9375 4.875 C32.628125 5.57625 32.31875 6.2775 32 7 C32.495 7.99 32.495 7.99 33 9 C31.02 9 29.04 9 27 9 C28 6 28 6 29 5 C19.43 4.67 9.86 4.34 0 4 C0 2.68 0 1.36 0 0 Z " fill="#BB9467" transform="translate(0,96)"/>
<path d="M0 0 C5.28 1.98 10.56 3.96 16 6 C16 6.66 16 7.32 16 8 C16.66 8 17.32 8 18 8 C21.88815631 13.18420842 23.40139646 19.57765668 23 26 C21.5393715 23.35261084 21 22.10551666 21 19 C20.34 19 19.68 19 19 19 C18.67 18.01 18.34 17.02 18 16 C14.99992729 14.29144978 14.99992729 14.29144978 12 13 C12 12.01 12 11.02 12 10 C11.34 10 10.68 10 10 10 C10 9.34 10 8.68 10 8 C6.7 7.01 3.4 6.02 0 5 C0 3.35 0 1.7 0 0 Z " fill="#3A2623" transform="translate(0,7)"/>
<path d="M0 0 C1.670625 0.061875 1.670625 0.061875 3.375 0.125 C3.375 2.435 3.375 4.745 3.375 7.125 C-4.545 7.125 -12.465 7.125 -20.625 7.125 C-19.625 4.125 -19.625 4.125 -16.5 2.375 C-12.64408242 0.82468262 -9.69167447 1.40735156 -5.625 2.125 C-3.625 0.125 -3.625 0.125 0 0 Z " fill="#C47C7F" transform="translate(124.625,24.875)"/>
<path d="M0 0 C16.8929385 -0.18451025 16.8929385 -0.18451025 24 1 C24 2.32 24 3.64 24 5 C17.29980211 5.70132913 10.73742646 6.11044961 4 6 C3.67 6.99 3.34 7.98 3 9 C0.70620251 5.55930376 0 4.27709699 0 0 Z " fill="#372A48" transform="translate(104,39)"/>
<path d="M0 0 C1.65 0 3.3 0 5 0 C4.34 1.98 3.68 3.96 3 6 C2.34 6 1.68 6 1 6 C1 6.99 1 7.98 1 9 C-0.98 9 -2.96 9 -5 9 C-5 8.34 -5 7.68 -5 7 C-5.99 7.495 -5.99 7.495 -7 8 C-13.7343041 8.35225591 -20.342642 8.02420892 -27 7 C-27 6.34 -27 5.68 -27 5 C-19.59914625 2.88547036 -13.2710225 1.65925993 -6 5 C-4.34080104 5.36871088 -2.6752357 5.71281674 -1 6 C-0.67 4.02 -0.34 2.04 0 0 Z " fill="#C8A67B" transform="translate(31,108)"/>
<path d="M0 0 C4 3 4 3 4.39404297 5.15722656 C4.34393066 5.97674805 4.29381836 6.79626953 4.2421875 7.640625 C4.19320312 8.54683594 4.14421875 9.45304687 4.09375 10.38671875 C3.98546875 11.80404297 3.98546875 11.80404297 3.875 13.25 C3.82601562 14.17941406 3.77703125 15.10882813 3.7265625 16.06640625 C3.3177156 22.63583254 2.72374145 28.41438783 -1 34 C-1.66 34 -2.32 34 -3 34 C-3 34.66 -3 35.32 -3 36 C8.385 36.99 8.385 36.99 20 38 C20 38.66 20 39.32 20 40 C14.06 39.34 8.12 38.68 2 38 C2 38.66 2 39.32 2 40 C-0.31 39.67 -2.62 39.34 -5 39 C-5.33 37.68 -5.66 36.36 -6 35 C-5.360625 34.773125 -4.72125 34.54625 -4.0625 34.3125 C-1.72806339 33.14749104 -1.72806339 33.14749104 -1.25 30.375 C-1.1675 29.59125 -1.085 28.8075 -1 28 C-0.34 28 0.32 28 1 28 C0.67 18.76 0.34 9.52 0 0 Z " fill="#C4C0B2" transform="translate(108,52)"/>
<path d="M0 0 C2.97 0.495 2.97 0.495 6 1 C5.01 1.495 5.01 1.495 4 2 C4 2.66 4 3.32 4 4 C5.32 4.33 6.64 4.66 8 5 C8.36047431 12.08932806 8.36047431 12.08932806 6.8125 16 C6.214375 16.66 5.61625 17.32 5 18 C3.35 18 1.7 18 0 18 C0 12.06 0 6.12 0 0 Z " fill="#42291F" transform="translate(0,69)"/>
<path d="M0 0 C0.33 0.99 0.66 1.98 1 3 C2.65 3 4.3 3 6 3 C6 3.66 6 4.32 6 5 C8.64 5 11.28 5 14 5 C14.33 5.66 14.66 6.32 15 7 C5.43 7 -4.14 7 -14 7 C-14 5.68 -14 4.36 -14 3 C-9.44508386 0.79600832 -4.97093824 0.41153737 0 0 Z " fill="#6D4C35" transform="translate(14,121)"/>
<path d="M0 0 C0.66 0.99 1.32 1.98 2 3 C4.6556728 3.58348752 4.6556728 3.58348752 7.625 3.6875 C8.62789062 3.75324219 9.63078125 3.81898437 10.6640625 3.88671875 C11.43492188 3.92410156 12.20578125 3.96148437 13 4 C13 4.66 13 5.32 13 6 C9.04 6.66 5.08 7.32 1 8 C8.425 8.99 8.425 8.99 16 10 C14.02 10.99 14.02 10.99 12 12 C14.97 12.495 14.97 12.495 18 13 C18 13.33 18 13.66 18 14 C14.54133208 13.86149295 11.08316725 13.71295273 7.625 13.5625 C6.64015625 13.52318359 5.6553125 13.48386719 4.640625 13.44335938 C3.69960937 13.40146484 2.75859375 13.35957031 1.7890625 13.31640625 C0.91975098 13.27974854 0.05043945 13.24309082 -0.84521484 13.20532227 C-3 13 -3 13 -5 12 C-5 11.34 -5 10.68 -5 10 C-4.34 10 -3.68 10 -3 10 C-2.01 6.7 -1.02 3.4 0 0 Z " fill="#593A2F" transform="translate(110,76)"/>
<path d="M0 0 C1.98 0 3.96 0 6 0 C6 2.31 6 4.62 6 7 C4.88625 7.45375 3.7725 7.9075 2.625 8.375 C-0.96199008 9.72465986 -0.96199008 9.72465986 -3 12 C-5.3125 12.046875 -5.3125 12.046875 -8 11.75 C-8.886875 11.66234375 -9.77375 11.5746875 -10.6875 11.484375 C-13 11 -13 11 -15 9 C-14.0625 7 -14.0625 7 -12 5 C-9.73373 4.77781667 -7.56662311 4.88052129 -5.29296875 4.984375 C-2.21054248 5.00537961 0.20454297 4.25795567 3 3 C3.33 2.34 3.66 1.68 4 1 C2.68 0.67 1.36 0.34 0 0 Z " fill="#BCB2B0" transform="translate(64,61)"/>
<path d="M0 0 C3.96 0 7.92 0 12 0 C11.67 2.64 11.34 5.28 11 8 C3.41 8 -4.18 8 -12 8 C-10.68 6.02 -9.36 4.04 -8 2 C-7.34 2.33 -6.68 2.66 -6 3 C-6 3.66 -6 4.32 -6 5 C-0.72 5 4.56 5 10 5 C10 4.01 10 3.02 10 2 C6.37 2 2.74 2 -1 2 C-0.67 1.34 -0.34 0.68 0 0 Z " fill="#959893" transform="translate(74,120)"/>
<path d="M0 0 C0.33 0 0.66 0 1 0 C1.66 6.27 2.32 12.54 3 19 C0.64875 19.0309375 0.64875 19.0309375 -1.75 19.0625 C-3.07257812 19.07990234 -3.07257812 19.07990234 -4.421875 19.09765625 C-6.7818838 19.00826198 -8.74498524 18.66912821 -11 18 C-11 17.34 -11 16.68 -11 16 C-12.32 15.34 -13.64 14.68 -15 14 C-15 13.01 -15 12.02 -15 11 C-14.09507813 11.2165625 -14.09507813 11.2165625 -13.171875 11.4375 C-12.37265625 11.623125 -11.5734375 11.80875 -10.75 12 C-9.96109375 12.185625 -9.1721875 12.37125 -8.359375 12.5625 C-5.74443998 13.12154828 -5.74443998 13.12154828 -2 13 C-0.71553081 10.43106162 -0.67022856 8.23423663 -0.4375 5.375 C-0.35371094 4.37210938 -0.26992187 3.36921875 -0.18359375 2.3359375 C-0.12300781 1.56507812 -0.06242188 0.79421875 0 0 Z " fill="#1D0C09" transform="translate(15,55)"/>
<path d="M0 0 C6.93 0 13.86 0 21 0 C20.67 0.99 20.34 1.98 20 3 C17.36 3 14.72 3 12 3 C12 3.99 12 4.98 12 6 C8.04 6 4.08 6 0 6 C0 4.02 0 2.04 0 0 Z " fill="#BE9A6D" transform="translate(0,102)"/>
<path d="M0 0 C1.7015625 0.2165625 1.7015625 0.2165625 3.4375 0.4375 C4.17355469 0.52773438 4.90960938 0.61796875 5.66796875 0.7109375 C7.15086967 0.89474766 8.63281724 1.08655911 10.11328125 1.2890625 C14.55735126 1.85777347 18.76761931 1.96630718 23.25 1.8125 C27.1959901 1.77228609 28.68372976 1.82016006 32.1875 3.8125 C34 6 34 6 35 9 C34.34 9.66 33.68 10.32 33 11 C32.505 9.515 32.505 9.515 32 8 C29.36 7.67 26.72 7.34 24 7 C24 6.01 24 5.02 24 4 C23.18917969 4.03480469 22.37835938 4.06960937 21.54296875 4.10546875 C13.82489029 4.29415286 7.31619319 3.46316725 0 1 C0 0.67 0 0.34 0 0 Z " fill="#DCDAD2" transform="translate(49,44)"/>
<path d="M0 0 C9.41002278 0.96355353 9.41002278 0.96355353 14 2 C13.2884375 2.6496875 13.2884375 2.6496875 12.5625 3.3125 C10.76313043 5.02309613 10.76313043 5.02309613 10 8 C8.02 8 6.04 8 4 8 C4 7.34 4 6.68 4 6 C2.35 6 0.7 6 -1 6 C-0.67 4.02 -0.34 2.04 0 0 Z " fill="#7E573D" transform="translate(10,79)"/>
<path d="M0 0 C0.33 0.66 0.66 1.32 1 2 C4.3 2 7.6 2 11 2 C11 3.65 11 5.3 11 7 C6.38 7 1.76 7 -3 7 C-3 5.35 -3 3.7 -3 2 C-2.01 1.34 -1.02 0.68 0 0 Z " fill="#8A7558" transform="translate(91,121)"/>
<path d="M0 0 C2.875 0.9375 2.875 0.9375 4.125 2.875 C4.3725 3.555625 4.62 4.23625 4.875 4.9375 C5.535 5.5975 6.195 6.2575 6.875 6.9375 C6.215 6.9375 5.555 6.9375 4.875 6.9375 C4.875 7.5975 4.875 8.2575 4.875 8.9375 C1.59699032 9.96773161 0.26096452 10.10903978 -2.9375 8.6875 C-3.659375 8.11 -4.38125 7.5325 -5.125 6.9375 C-5.125 5.9475 -5.125 4.9575 -5.125 3.9375 C-5.785 3.6075 -6.445 3.2775 -7.125 2.9375 C-4.60800773 0.51731512 -3.56129761 -0.07122595 0 0 Z " fill="#F6EEE4" transform="translate(57.125,49.0625)"/>
<path d="M0 0 C1.65 0 3.3 0 5 0 C5.02699725 2.27076842 5.04639453 4.54162821 5.0625 6.8125 C5.07410156 8.07707031 5.08570312 9.34164062 5.09765625 10.64453125 C5 14 5 14 4 17 C3.01 17 2.02 17 1 17 C0.67 11.39 0.34 5.78 0 0 Z " fill="#F9F7E9" transform="translate(96,104)"/>
<path d="M0 0 C0.33 0.66 0.66 1.32 1 2 C5.72096412 4.10936695 9.83315951 4.11355043 14.875 3.625 C15.56335938 3.56828125 16.25171875 3.5115625 16.9609375 3.453125 C18.64157689 3.31307172 20.32096005 3.15807755 22 3 C22 3.66 22 4.32 22 5 C22.66 5 23.32 5 24 5 C23.34 6.98 22.68 8.96 22 11 C20 7.125 20 7.125 20 6 C19.13117188 6.09539063 18.26234375 6.19078125 17.3671875 6.2890625 C16.21476562 6.39992188 15.06234375 6.51078125 13.875 6.625 C12.73804687 6.74101563 11.60109375 6.85703125 10.4296875 6.9765625 C6.83488201 7.00112837 4.319329 6.32167811 1 5 C1 4.34 1 3.68 1 3 C-1.64 3.33 -4.28 3.66 -7 4 C-6.67 3.01 -6.34 2.02 -6 1 C-4.7934375 1.0309375 -4.7934375 1.0309375 -3.5625 1.0625 C-1.06645115 1.29633621 -1.06645115 1.29633621 0 0 Z " fill="#DCD5CC" transform="translate(49,56)"/>
<path d="M0 0 C0.99 0.495 0.99 0.495 2 1 C2 1.99 2 2.98 2 4 C2.66 4 3.32 4 4 4 C4.66 7.3 5.32 10.6 6 14 C6.66 14 7.32 14 8 14 C7.1875 17.4375 7.1875 17.4375 6 21 C5.01 21.33 4.02 21.66 3 22 C2.06576355 18.98968256 1.95550089 18.13349732 3 15 C2.34 14.01 1.68 13.02 1 12 C0.95679753 9.66706666 0.95977609 7.3329866 1 5 C0.71479595 3.32442621 0.40044304 1.65182755 0 0 Z " fill="#5D4C44" transform="translate(17,22)"/>
<path d="M0 0 C8 0 16 0 24 0 C24 0.99 24 1.98 24 3 C15.75 3 7.5 3 -1 3 C-0.67 2.01 -0.34 1.02 0 0 Z " fill="#A17648" transform="translate(104,125)"/>
<path d="M0 0 C1.65 0 3.3 0 5 0 C5 0.66 5 1.32 5 2 C6.65 2 8.3 2 10 2 C8.43977363 5.82964655 6.12444429 8.32190489 3 11 C1.68 11 0.36 11 -1 11 C-0.67 9.02 -0.34 7.04 0 5 C1.32 5 2.64 5 4 5 C4 4.34 4 3.68 4 3 C2.68 2.67 1.36 2.34 0 2 C0 1.34 0 0.68 0 0 Z " fill="#81827D" transform="translate(35,117)"/>
<path d="M0 0 C3.5625 0.1875 3.5625 0.1875 5.5625 2.1875 C5.5625 3.5075 5.5625 4.8275 5.5625 6.1875 C4.5725 6.8475 3.5825 7.5075 2.5625 8.1875 C1.83284634 10.75032742 1.83284634 10.75032742 1.5625 13.1875 C1.2325 12.1975 0.9025 11.2075 0.5625 10.1875 C-0.0975 10.1875 -0.7575 10.1875 -1.4375 10.1875 C-1.1075 8.2075 -0.7775 6.2275 -0.4375 4.1875 C-2.4175 5.1775 -2.4175 5.1775 -4.4375 6.1875 C-4.480221 4.52138095 -4.47813832 2.85367115 -4.4375 1.1875 C-3.4375 0.1875 -3.4375 0.1875 0 0 Z " fill="#C7C7BE" transform="translate(39.4375,34.8125)"/>
<path d="M0 0 C1.65 0 3.3 0 5 0 C5.33 0.99 5.66 1.98 6 3 C6.66 3.66 7.32 4.32 8 5 C6.35 5 4.7 5 3 5 C2.67 6.98 2.34 8.96 2 11 C3.65 11 5.3 11 7 11 C7 11.66 7 12.32 7 13 C2.23692563 13.95261487 -2.1666528 14.08333357 -7 14 C-7 13.67 -7 13.34 -7 13 C-6.21625 12.9175 -5.4325 12.835 -4.625 12.75 C-1.96564197 12.25496816 -1.96564197 12.25496816 -0.6875 10.4375 C0.31210998 6.89342826 0.12259376 3.67781281 0 0 Z " fill="#724E34" transform="translate(7,74)"/>
<path d="M0 0 C5.28 0 10.56 0 16 0 C16 0.66 16 1.32 16 2 C21.445 2.495 21.445 2.495 27 3 C27 3.33 27 3.66 27 4 C17.94361322 4.15178302 9.02417777 3.69037426 0 3 C0 2.01 0 1.02 0 0 Z " fill="#D3B185" transform="translate(5,89)"/>
<path d="M0 0 C0 1.32 0 2.64 0 4 C-4.95 4.33 -9.9 4.66 -15 5 C-15.33 3.68 -15.66 2.36 -16 1 C-10.59255982 0.22750855 -5.46137814 -0.09752461 0 0 Z " fill="#0A0203" transform="translate(128,60)"/>
<path d="M0 0 C8.25 0 16.5 0 25 0 C25 0.99 25 1.98 25 3 C16.60995285 3.13605482 8.35619957 2.75475351 0 2 C0 1.34 0 0.68 0 0 Z " fill="#CFA987" transform="translate(103,108)"/>
<path d="M0 0 C2.64 0 5.28 0 8 0 C8 1.98 8 3.96 8 6 C7.01 6 6.02 6 5 6 C4.67 5.01 4.34 4.02 4 3 C3.01 2.67 2.02 2.34 1 2 C1.7425 3.1446875 1.7425 3.1446875 2.5 4.3125 C4 7 4 7 4 10 C5.98 10 7.96 10 10 10 C10 10.33 10 10.66 10 11 C6.7 11 3.4 11 0 11 C0 7.37 0 3.74 0 0 Z " fill="#898D88" transform="translate(76,106)"/>
<path d="M0 0 C9.24 0 18.48 0 28 0 C28 0.66 28 1.32 28 2 C21.375 3.125 21.375 3.125 18 2 C11.04000297 1.51679593 5.07249681 1.16473886 -1 5 C-1.99 5 -2.98 5 -4 5 C-4 4.34 -4 3.68 -4 3 C-2.68 2.67 -1.36 2.34 0 2 C0 1.34 0 0.68 0 0 Z " fill="#3D4230" transform="translate(70,0)"/>
<path d="M0 0 C3.3 0 6.6 0 10 0 C10 0.66 10 1.32 10 2 C11.32 2.33 12.64 2.66 14 3 C14 3.66 14 4.32 14 5 C9.71 5 5.42 5 1 5 C0.67 3.35 0.34 1.7 0 0 Z " fill="#A98161" transform="translate(102,113)"/>
<path d="M0 0 C0.66 0.33 1.32 0.66 2 1 C1.67 1.66 1.34 2.32 1 3 C0.34 3 -0.32 3 -1 3 C-1 3.66 -1 4.32 -1 5 C10.385 5.99 10.385 5.99 22 7 C22 7.66 22 8.32 22 9 C16.06 8.34 10.12 7.68 4 7 C4 7.66 4 8.32 4 9 C1.69 8.67 -0.62 8.34 -3 8 C-3.33 6.68 -3.66 5.36 -4 4 C-2.68 3.34 -1.36 2.68 0 2 C0 1.34 0 0.68 0 0 Z " fill="#A68D6F" transform="translate(106,83)"/>
<path d="M0 0 C1.32 0 2.64 0 4 0 C4 0.66 4 1.32 4 2 C11.92 2 19.84 2 28 2 C28 2.66 28 3.32 28 4 C23.89589245 4.05796132 19.79188984 4.09358313 15.6875 4.125 C14.52025391 4.14175781 13.35300781 4.15851562 12.15039062 4.17578125 C10.47299805 4.18544922 10.47299805 4.18544922 8.76171875 4.1953125 C7.2142395 4.21102295 7.2142395 4.21102295 5.63549805 4.22705078 C3 4 3 4 0 2 C0 1.34 0 0.68 0 0 Z " fill="#B48A8E" transform="translate(100,30)"/>
<path d="M0 0 C0.66 0 1.32 0 2 0 C3.5912689 4.873261 4.21192221 8.80790596 4 14 C2.02 14.99 2.02 14.99 0 16 C-0.71033431 10.47032059 -1.30267176 5.50016964 0 0 Z " fill="#E3DBCE" transform="translate(89,106)"/>
<path d="M0 0 C3.96 0 7.92 0 12 0 C12 2.64 12 5.28 12 8 C11.01 8 10.02 8 9 8 C8.67 7.34 8.34 6.68 8 6 C8.33 5.34 8.66 4.68 9 4 C6.03 4 3.06 4 0 4 C0 2.68 0 1.36 0 0 Z " fill="#E9EAE7" transform="translate(59,104)"/>
<path d="M0 0 C-0.33 0.99 -0.66 1.98 -1 3 C-5.93791838 5.34551123 -10.66444505 5.2134222 -16 5 C-15.67 4.01 -15.34 3.02 -15 2 C-9.86308839 0.00813631 -5.47549707 -0.1921227 0 0 Z " fill="#381C1B" transform="translate(68,62)"/>
<path d="M0 0 C4.29 0 8.58 0 13 0 C12.67 3.63 12.34 7.26 12 11 C11.01 11 10.02 11 9 11 C9.33 8.36 9.66 5.72 10 3 C6.7 3 3.4 3 0 3 C0 2.01 0 1.02 0 0 Z " fill="#F1F4EB" transform="translate(76,117)"/>
<path d="M0 0 C2.94956528 1.36944102 5.52468811 2.87830409 8 5 C8 5.66 8 6.32 8 7 C10.97 7.99 13.94 8.98 17 10 C17 12.31 17 14.62 17 17 C16.67 17 16.34 17 16 17 C16 15.02 16 13.04 16 11 C14.989375 10.938125 13.97875 10.87625 12.9375 10.8125 C8.29346444 10.1680216 5.55584773 7.97530116 2 5 C2 4.34 2 3.68 2 3 C1.34 3 0.68 3 0 3 C0 2.01 0 1.02 0 0 Z " fill="#41292A" transform="translate(0,37)"/>
<path d="M0 0 C0.66 0.33 1.32 0.66 2 1 C2.27429625 6.39449293 2.36055646 9.51925805 -1 14 C-1.99 13.67 -2.98 13.34 -4 13 C-3.835 12.236875 -3.67 11.47375 -3.5 10.6875 C-2.90854604 7.96403764 -2.90854604 7.96403764 -3 5 C-2.625 2.875 -2.625 2.875 -2 1 C-1.34 0.67 -0.68 0.34 0 0 Z " fill="#523523" transform="translate(6,73)"/>
<path d="M0 0 C0.66 0 1.32 0 2 0 C2 0.66 2 1.32 2 2 C7.94 2 13.88 2 20 2 C20 2.99 20 3.98 20 5 C17.41638482 5.05407567 14.83390745 5.093707 12.25 5.125 C11.52039063 5.14175781 10.79078125 5.15851562 10.0390625 5.17578125 C6.1955376 5.21072239 3.25393228 5.17499684 0 3 C0 2.01 0 1.02 0 0 Z " fill="#271928" transform="translate(108,49)"/>
<path d="M0 0 C0.66 0 1.32 0 2 0 C2 0.99 2 1.98 2 3 C3.32 2.67 4.64 2.34 6 2 C7.24546405 4.49092811 6.7767578 5.41080733 6 8 C4.68 7.34 3.36 6.68 2 6 C2 5.34 2 4.68 2 4 C1.34 4 0.68 4 0 4 C0 5.98 0 7.96 0 10 C-0.66 10 -1.32 10 -2 10 C-2 9.34 -2 8.68 -2 8 C-2.66 8 -3.32 8 -4 8 C-4 6.35 -4 4.7 -4 3 C-3.01 3 -2.02 3 -1 3 C-0.67 2.01 -0.34 1.02 0 0 Z " fill="#CFC6BF" transform="translate(36,52)"/>
<path d="M0 0 C3.96 0 7.92 0 12 0 C12 0.66 12 1.32 12 2 C11.16597656 2.12117188 10.33195312 2.24234375 9.47265625 2.3671875 C2.90884576 3.34461632 -3.54302216 4.46783577 -10 6 C-9.34 4.68 -8.68 3.36 -8 2 C-5.36 2 -2.72 2 0 2 C0 1.34 0 0.68 0 0 Z " fill="#E3DFD0" transform="translate(116,20)"/>
<path d="M0 0 C1.91936213 0.42551896 3.83542874 0.86591938 5.75 1.3125 C7.35101563 1.67794922 7.35101563 1.67794922 8.984375 2.05078125 C11.96894611 2.99022526 13.75635764 3.84102339 16 6 C16.75 9.1875 16.75 9.1875 17 12 C14.525 11.01 14.525 11.01 12 10 C12 9.01 12 8.02 12 7 C11.34 7 10.68 7 10 7 C10 6.34 10 5.68 10 5 C6.7 4.01 3.4 3.02 0 2 C0 1.34 0 0.68 0 0 Z " fill="#533B37" transform="translate(0,10)"/>
<path d="M0 0 C0.33 0.99 0.66 1.98 1 3 C2.65 3 4.3 3 6 3 C6 3.66 6 4.32 6 5 C8.64 5 11.28 5 14 5 C14.33 5.66 14.66 6.32 15 7 C13.52093108 7.02689216 12.04172517 7.04634621 10.5625 7.0625 C9.32693359 7.07990234 9.32693359 7.07990234 8.06640625 7.09765625 C6 7 6 7 5 6 C2.98405418 5.76572222 0.961526 5.58663876 -1.0625 5.4375 C-2.16722656 5.35371094 -3.27195312 5.26992187 -4.41015625 5.18359375 C-5.26480469 5.12300781 -6.11945312 5.06242187 -7 5 C-6.34 4.67 -5.68 4.34 -5 4 C-4.67 3.01 -4.34 2.02 -4 1 C-1.9375 0.3125 -1.9375 0.3125 0 0 Z " fill="#54341A" transform="translate(14,121)"/>
<path d="M0 0 C2.33944736 0.28730055 4.6739143 0.61936779 7 1 C7 1.66 7 2.32 7 3 C5.35 3 3.7 3 2 3 C2 3.99 2 4.98 2 6 C-1.63 6 -5.26 6 -9 6 C-9 5.34 -9 4.68 -9 4 C-8.43410156 3.79503906 -7.86820313 3.59007813 -7.28515625 3.37890625 C-6.55167969 3.10949219 -5.81820313 2.84007813 -5.0625 2.5625 C-4.33160156 2.29566406 -3.60070312 2.02882813 -2.84765625 1.75390625 C-1.01694322 1.14613052 -1.01694322 1.14613052 0 0 Z " fill="#5A392B" transform="translate(25,116)"/>
<path d="M0 0 C2.75006608 -0.0270203 5.49986546 -0.04684883 8.25 -0.0625 C9.02730469 -0.07087891 9.80460937 -0.07925781 10.60546875 -0.08789062 C11.73662109 -0.09272461 11.73662109 -0.09272461 12.890625 -0.09765625 C13.92751465 -0.10551147 13.92751465 -0.10551147 14.98535156 -0.11352539 C17.09973898 0.00562029 18.96641515 0.42381763 21 1 C21 1.66 21 2.32 21 3 C14.4 3 7.8 3 1 3 C0.67 2.01 0.34 1.02 0 0 Z " fill="#CBA880" transform="translate(107,102)"/>
<path d="M0 0 C0.33 0.66 0.66 1.32 1 2 C2.32 2 3.64 2 5 2 C5 1.34 5 0.68 5 0 C8.63 0 12.26 0 16 0 C9.50700359 4.32866427 3.56220495 4.24220585 -4 4 C-4 3.34 -4 2.68 -4 2 C-2.68 1.34 -1.36 0.68 0 0 Z " fill="#422314" transform="translate(96,119)"/>
<path d="M0 0 C2.91517292 1.07401108 4.77810176 1.77810176 7 4 C7 4.99 7 5.98 7 7 C4.36 7 1.72 7 -1 7 C-1.625 4.625 -1.625 4.625 -2 2 C-1.34 1.34 -0.68 0.68 0 0 Z " fill="#2B2926" transform="translate(43,41)"/>
<path d="M0 0 C1.87945312 0.06960937 1.87945312 0.06960937 3.796875 0.140625 C5.06015625 0.17671875 6.3234375 0.2128125 7.625 0.25 C9.07132813 0.31960937 9.07132813 0.31960937 10.546875 0.390625 C9.556875 0.885625 9.556875 0.885625 8.546875 1.390625 C8.546875 2.050625 8.546875 2.710625 8.546875 3.390625 C0.626875 3.885625 0.626875 3.885625 -7.453125 4.390625 C-3.453125 0.390625 -3.453125 0.390625 0 0 Z " fill="#BE9D75" transform="translate(115.453125,94.609375)"/>
<path d="M0 0 C2.64 0 5.28 0 8 0 C6.25 2.5 6.25 2.5 4 5 C2.68 5 1.36 5 0 5 C0 9.95 0 14.9 0 20 C-0.33 20 -0.66 20 -1 20 C-1.02689449 17.04160645 -1.04678741 14.08345573 -1.0625 11.125 C-1.07087891 10.28324219 -1.07925781 9.44148438 -1.08789062 8.57421875 C-1.09111328 7.76855469 -1.09433594 6.96289062 -1.09765625 6.1328125 C-1.10289307 5.38918457 -1.10812988 4.64555664 -1.11352539 3.87939453 C-1 2 -1 2 0 0 Z " fill="#5D4A41" transform="translate(112,55)"/>
<path d="M0 0 C3.3 0 6.6 0 10 0 C9.67 1.65 9.34 3.3 9 5 C3.375 5.25 3.375 5.25 0 3 C0 2.01 0 1.02 0 0 Z " fill="#1C1913" transform="translate(61,49)"/>
<path d="M0 0 C1.670625 0.061875 1.670625 0.061875 3.375 0.125 C3.375 0.455 3.375 0.785 3.375 1.125 C1.725 1.455 0.075 1.785 -1.625 2.125 C-1.625 3.445 -1.625 4.765 -1.625 6.125 C-0.635 5.465 0.355 4.805 1.375 4.125 C1.705 5.115 2.035 6.105 2.375 7.125 C1.385 8.61 1.385 8.61 0.375 10.125 C-4.5 8.25 -4.5 8.25 -5.625 7.125 C-5.8125 4.6875 -5.8125 4.6875 -5.625 2.125 C-3.625 0.125 -3.625 0.125 0 0 Z " fill="#E3E3DA" transform="translate(37.625,33.875)"/>
<path d="M0 0 C0.825 0.78375 1.65 1.5675 2.5 2.375 C6.09579467 5.41164 9.42279594 6.13190957 14 7 C12 9 12 9 8.375 9.125 C7.26125 9.08375 6.1475 9.0425 5 9 C4.67 10.32 4.34 11.64 4 13 C4 10.36 4 7.72 4 5 C2.68 4.67 1.36 4.34 0 4 C0 2.68 0 1.36 0 0 Z " fill="#CDC3BA" transform="translate(98,29)"/>
<path d="M0 0 C0.804375 0.12375 1.60875 0.2475 2.4375 0.375 C3.0975 1.365 3.7575 2.355 4.4375 3.375 C4.086875 3.99375 3.73625 4.6125 3.375 5.25 C3.065625 5.95125 2.75625 6.6525 2.4375 7.375 C2.7675 8.035 3.0975 8.695 3.4375 9.375 C1.4575 9.375 -0.5225 9.375 -2.5625 9.375 C-1.5625 6.375 -1.5625 6.375 -0.5625 5.375 C-3.0375 4.385 -3.0375 4.385 -5.5625 3.375 C-3.76123295 1.09971531 -2.9258843 0.42817819 0 0 Z " fill="#B89B73" transform="translate(29.5625,95.625)"/>
<path d="M0 0 C0.66 0 1.32 0 2 0 C3.33333333 1.33333333 4.66666667 2.66666667 6 4 C9.30546023 6.28839555 12.01927772 7.43132539 16 8 C16 8.99 16 9.98 16 11 C9.46538931 11 6.44154516 8.25090381 1.72265625 3.91015625 C0 2 0 2 0 0 Z " fill="#1F0D0D" transform="translate(0,40)"/>
<path d="M0 0 C0.99 0.309375 1.98 0.61875 3 0.9375 C6.97731122 2.08433207 10.88767379 2.56712356 15 3 C15 3.66 15 4.32 15 5 C11.86501708 6.85776765 9.62528568 7.20140476 6 7 C5.67 6.01 5.34 5.02 5 4 C2.03 3.505 2.03 3.505 -1 3 C-0.67 2.01 -0.34 1.02 0 0 Z " fill="#93673C" transform="translate(113,120)"/>
<path d="M0 0 C1.32 0 2.64 0 4 0 C4 2.97 4 5.94 4 9 C2.35 9.66 0.7 10.32 -1 11 C-0.67 7.37 -0.34 3.74 0 0 Z " fill="#85735E" transform="translate(93,110)"/>
<path d="M0 0 C1.98 0 3.96 0 6 0 C6 2.31 6 4.62 6 7 C4.88625 7.45375 3.7725 7.9075 2.625 8.375 C-0.96199008 9.72465986 -0.96199008 9.72465986 -3 12 C-5.125 11.625 -5.125 11.625 -7 11 C-6.38125 10.731875 -5.7625 10.46375 -5.125 10.1875 C-2.7004767 9.04443152 -2.7004767 9.04443152 -1 6 C-0.01 5.67 0.98 5.34 2 5 C3.20882096 2.99983534 3.20882096 2.99983534 4 1 C2.68 0.67 1.36 0.34 0 0 Z " fill="#C8AEAC" transform="translate(64,61)"/>
<path d="M0 0 C2 2 2 2 2 5 C-3.56890517 4.52013969 -8.67067568 3.70084819 -14 2 C-14 1.67 -14 1.34 -14 1 C-11.70954632 0.77872902 -9.41755236 0.5733496 -7.125 0.375 C-5.84882813 0.25898437 -4.57265625 0.14296875 -3.2578125 0.0234375 C-2.18273437 0.01570313 -1.10765625 0.00796875 0 0 Z " fill="#AA916B" transform="translate(28,109)"/>
<path d="M0 0 C1.4606285 2.64738916 2 3.89448334 2 7 C0.41676312 7.027193 -1.16661062 7.04648306 -2.75 7.0625 C-4.07257812 7.07990234 -4.07257812 7.07990234 -5.421875 7.09765625 C-7.7818838 7.00826198 -9.74498524 6.66912821 -12 6 C-12 5.34 -12 4.68 -12 4 C-7.70700357 2.73735399 -5.12168689 3.37049588 -1 5 C-0.67 3.35 -0.34 1.7 0 0 Z " fill="#31140F" transform="translate(16,67)"/>
<path d="M0 0 C1.32 0.33 2.64 0.66 4 1 C4 2.32 4 3.64 4 5 C3.01 5.66 2.02 6.32 1 7 C-0.19232613 9.05003955 -0.19232613 9.05003955 -1 11 C-4 7.375 -4 7.375 -4 4 C-2.35 3.67 -0.7 3.34 1 3 C0.67 2.01 0.34 1.02 0 0 Z " fill="#F8F4E8" transform="translate(31,101)"/>
<path d="M0 0 C1.65 0 3.3 0 5 0 C3.68 0.33 2.36 0.66 1 1 C1 1.66 1 2.32 1 3 C2.32 3 3.64 3 5 3 C4.34 4.98 3.68 6.96 3 9 C0.69 8.01 -1.62 7.02 -4 6 C-3.67 5.34 -3.34 4.68 -3 4 C-2.01 4 -1.02 4 0 4 C0 2.68 0 1.36 0 0 Z " fill="#978870" transform="translate(27,119)"/>
<path d="M0 0 C0.66 0 1.32 0 2 0 C2.99 1.98 3.98 3.96 5 6 C3.35 7.65 1.7 9.3 0 11 C-0.99 10.01 -1.98 9.02 -3 8 C-2.34 7.67 -1.68 7.34 -1 7 C-0.59270772 4.67843403 -0.25561323 2.3431213 0 0 Z " fill="#CFD0CB" transform="translate(58,114)"/>
<path d="M0 0 C0.33 0.66 0.66 1.32 1 2 C1.66 2 2.32 2 3 2 C3 6.62 3 11.24 3 16 C1.68 15.34 0.36 14.68 -1 14 C-0.34 14 0.32 14 1 14 C1 10.37 1 6.74 1 3 C-0.65 3 -2.3 3 -4 3 C-2.68 2.67 -1.36 2.34 0 2 C0 1.34 0 0.68 0 0 Z " fill="#C5C5BC" transform="translate(85,101)"/>
<path d="M0 0 C1.32 0.33 2.64 0.66 4 1 C5.046875 3.109375 5.046875 3.109375 5.75 5.75 C5.99234375 6.61109375 6.2346875 7.4721875 6.484375 8.359375 C6.99596791 10.97935083 7.09574357 13.33832863 7 16 C5.5393715 13.35261084 5 12.10551666 5 9 C4.34 9 3.68 9 3 9 C2.01 6.03 1.02 3.06 0 0 Z " fill="#3F312B" transform="translate(16,17)"/>
<path d="M0 0 C3.96 0 7.92 0 12 0 C12 0.99 12 1.98 12 3 C8.04 3 4.08 3 0 3 C0 2.01 0 1.02 0 0 Z " fill="#F5F8F4" transform="translate(72,122)"/>
<path d="M0 0 C0.33 0.66 0.66 1.32 1 2 C4.63 2 8.26 2 12 2 C11.01 2.66 10.02 3.32 9 4 C9.99 4.99 10.98 5.98 12 7 C9.69 6.67 7.38 6.34 5 6 C5 5.34 5 4.68 5 4 C3.35 4 1.7 4 0 4 C0 2.68 0 1.36 0 0 Z " fill="#72513C" transform="translate(15,120)"/>
<path d="M0 0 C1.65 0 3.3 0 5 0 C4.34 1.98 3.68 3.96 3 6 C2.34 6 1.68 6 1 6 C1 6.66 1 7.32 1 8 C-0.65 8 -2.3 8 -4 8 C-4 7.34 -4 6.68 -4 6 C-3.01 6 -2.02 6 -1 6 C-0.67 4.02 -0.34 2.04 0 0 Z " fill="#B8BAAF" transform="translate(31,108)"/>
<path d="M0 0 C0.66 0 1.32 0 2 0 C2.680625 1.85625 2.680625 1.85625 3.375 3.75 C4.4384007 6.59245495 5.55192483 9.32663046 7 12 C6.34 12 5.68 12 5 12 C5 13.98 5 15.96 5 18 C4.67 18 4.34 18 4 18 C4 15.03 4 12.06 4 9 C3.34 9 2.68 9 2 9 C2 8.34 2 7.68 2 7 C1.34 6.67 0.68 6.34 0 6 C0 4.02 0 2.04 0 0 Z " fill="#DBD2C2" transform="translate(84,94)"/>
<path d="M0 0 C5.28 0 10.56 0 16 0 C16 0.33 16 0.66 16 1 C14.02 1.33 12.04 1.66 10 2 C9.67 2.99 9.34 3.98 9 5 C7.68 5 6.36 5 5 5 C5 3.68 5 2.36 5 1 C3.68 1 2.36 1 1 1 C0.67 1.99 0.34 2.98 0 4 C0 2.68 0 1.36 0 0 Z " fill="#473543" transform="translate(104,39)"/>
<path d="M0 0 C2 2 2 2 2.8359375 4.015625 C4.38729222 6.66021626 5.72265768 6.92075934 8.625 7.75 C9.85089844 8.11351562 9.85089844 8.11351562 11.1015625 8.484375 C11.72804688 8.65453125 12.35453125 8.8246875 13 9 C13 9.33 13 9.66 13 10 C11.39504433 9.88557539 9.79101881 9.75805306 8.1875 9.625 C6.84751953 9.52058594 6.84751953 9.52058594 5.48046875 9.4140625 C3 9 3 9 0 7 C-0.1875 3.375 -0.1875 3.375 0 0 Z " fill="#674C49" transform="translate(0,30)"/>
<path d="M0 0 C0.66 0.33 1.32 0.66 2 1 C1.01 2.485 1.01 2.485 0 4 C-0.99 4 -1.98 4 -3 4 C-3 4.66 -3 5.32 -3 6 C-5.97 7.65 -8.94 9.3 -12 11 C-12 10.01 -12 9.02 -12 8 C-11.360625 7.731875 -10.72125 7.46375 -10.0625 7.1875 C-7.66868314 6.11332248 -7.66868314 6.11332248 -7 3 C-5.68 3 -4.36 3 -3 3 C-3 2.34 -3 1.68 -3 1 C-2.01 0.67 -1.02 0.34 0 0 Z " fill="#9E9E94" transform="translate(38,25)"/>
<path d="M0 0 C1.65 0 3.3 0 5 0 C5 4.62 5 9.24 5 14 C4.67 14 4.34 14 4 14 C4 10.7 4 7.4 4 4 C3.34 4 2.68 4 2 4 C1.67 4.99 1.34 5.98 1 7 C0 6 0 6 -0.0625 2.9375 C-0.041875 1.968125 -0.02125 0.99875 0 0 Z " fill="#EFE8D5" transform="translate(96,104)"/>
<path d="M0 0 C2 0 2 0 4.4375 2.375 C5.283125 3.24125 6.12875 4.1075 7 5 C7.99 5.66 8.98 6.32 10 7 C10 7.66 10 8.32 10 9 C5.62214594 8.49967382 3.11840922 7.11840922 0 4 C0 2.68 0 1.36 0 0 Z " fill="#391C19" transform="translate(36,56)"/>
<path d="M0 0 C4.51617599 -0.07654536 8.59085217 -0.10228696 13 1 C13 1.66 13 2.32 13 3 C8.71 3 4.42 3 0 3 C0 2.01 0 1.02 0 0 Z " fill="#D1AF84" transform="translate(12,105)"/>
<path d="M0 0 C4.62 0 9.24 0 14 0 C14 2.31 14 4.62 14 7 C12.02 7 10.04 7 8 7 C8.99 6.34 9.98 5.68 11 5 C11.33 3.68 11.66 2.36 12 1 C8.7 1 5.4 1 2 1 C1.67 1.66 1.34 2.32 1 3 C0.67 2.01 0.34 1.02 0 0 Z " fill="#888A8A" transform="translate(59,48)"/>
<path d="M0 0 C0.66 0 1.32 0 2 0 C2.66 3.3 3.32 6.6 4 10 C3.01 10 2.02 10 1 10 C-1.1875 7.5 -1.1875 7.5 -3 5 C-1.625 2.5 -1.625 2.5 0 0 Z " fill="#AFA9A4" transform="translate(35,95)"/>
<path d="M0 0 C0.66 0 1.32 0 2 0 C2 0.99 2 1.98 2 3 C5.465 2.505 5.465 2.505 9 2 C8.67 3.32 8.34 4.64 8 6 C6.02 6 4.04 6 2 6 C2 5.34 2 4.68 2 4 C0.35 4 -1.3 4 -3 4 C-1.625 2 -1.625 2 0 0 Z " fill="#9A7351" transform="translate(12,81)"/>
<path d="M0 0 C4.51720311 -0.36625971 4.51720311 -0.36625971 6.8125 1.375 C8 3 8 3 8 5 C5.69 5 3.38 5 1 5 C0.67 3.35 0.34 1.7 0 0 Z " fill="#D9DAD5" transform="translate(49,123)"/>
<path d="M0 0 C3.96 0 7.92 0 12 0 C12 0.66 12 1.32 12 2 C4.08 2.495 4.08 2.495 -4 3 C-2.68 2.67 -1.36 2.34 0 2 C0 1.34 0 0.68 0 0 Z " fill="#412323" transform="translate(116,58)"/>
<path d="M0 0 C0.99 0.33 1.98 0.66 3 1 C1.2356001 5.51511029 -0.34056036 9.03119224 -4.625 11.5625 C-5.73875 12.036875 -6.8525 12.51125 -8 13 C-8.66 12.67 -9.32 12.34 -10 12 C-9.67 10.68 -9.34 9.36 -9 8 C-8.01 8.33 -7.02 8.66 -6 9 C-3.82029908 8.62031521 -3.82029908 8.62031521 -2 7 C-0.70079254 3.45411499 -0.70079254 3.45411499 0 0 Z " fill="#646658" transform="translate(64,6)"/>
<path d="M0 0 C-0.639375 0.28875 -1.27875 0.5775 -1.9375 0.875 C-4.15206079 1.82823451 -4.15206079 1.82823451 -5 4 C-8.3 3.67 -11.6 3.34 -15 3 C-15 2.34 -15 1.68 -15 1 C-12.87630763 0.63807496 -10.7509887 0.28568253 -8.625 -0.0625 C-6.84996094 -0.35833984 -6.84996094 -0.35833984 -5.0390625 -0.66015625 C-2 -1 -2 -1 0 0 Z " fill="#BB979B" transform="translate(67,66)"/>
<path d="M0 0 C1.32 0 2.64 0 4 0 C4 1.32 4 2.64 4 4 C6.64 4 9.28 4 12 4 C12 4.33 12 4.66 12 5 C9.03 5 6.06 5 3 5 C2.67 5.99 2.34 6.98 2 8 C0.23537317 4.91190305 0 3.76687864 0 0 Z " fill="#2E1E24" transform="translate(105,40)"/>
<path d="M0 0 C3.63 0 7.26 0 11 0 C11 0.99 11 1.98 11 3 C8.29120665 4.35439668 5.99066732 4.06501451 3 4 C3.33 3.34 3.66 2.68 4 2 C2.68 1.34 1.36 0.68 0 0 Z " fill="#17150F" transform="translate(25,1)"/>
<path d="M0 0 C0 0.99 0 1.98 0 3 C-1.32 3 -2.64 3 -4 3 C-4 5.31 -4 7.62 -4 10 C-4.99 10.495 -4.99 10.495 -6 11 C-6 7.7 -6 4.4 -6 1 C-2 0 -2 0 0 0 Z " fill="#FAFCFB" transform="translate(79,103)"/>
<path d="M0 0 C3.96 0 7.92 0 12 0 C10.02 0.99 10.02 0.99 8 2 C7.38125 2.391875 6.7625 2.78375 6.125 3.1875 C3.17865786 4.31404258 1.02096204 3.68658228 -2 3 C-1.34 2.67 -0.68 2.34 0 2 C0 1.34 0 0.68 0 0 Z " fill="#CFAC80" transform="translate(8,92)"/>
<path d="M0 0 C-4.64203897 2.53309233 -8.65155992 4.46515599 -14 5 C-14 4.34 -14 3.68 -14 3 C-12.42274653 2.29866401 -10.83788667 1.614417 -9.25 0.9375 C-7.92742187 0.36322266 -7.92742187 0.36322266 -6.578125 -0.22265625 C-3.84743691 -1.04600008 -2.63098653 -0.9773992 0 0 Z " fill="#C69D99" transform="translate(113,26)"/>
<path d="M0 0 C2.31 0 4.62 0 7 0 C7 0.66 7 1.32 7 2 C5.68 2 4.36 2 3 2 C2.34 4.64 1.68 7.28 1 10 C0.34 9.67 -0.32 9.34 -1 9 C-0.67 6.03 -0.34 3.06 0 0 Z " fill="#592912" transform="translate(110,0)"/>
<path d="M0 0 C2.64 0 5.28 0 8 0 C8 1.98 8 3.96 8 6 C7.01 6 6.02 6 5 6 C4.67 5.01 4.34 4.02 4 3 C1.99983534 1.79117904 1.99983534 1.79117904 0 1 C0 0.67 0 0.34 0 0 Z " fill="#A6AAA5" transform="translate(76,106)"/>
<path d="M0 0 C5.28 0.33 10.56 0.66 16 1 C16 1.33 16 1.66 16 2 C8.08 2.495 8.08 2.495 0 3 C0 2.01 0 1.02 0 0 Z " fill="#C6A684" transform="translate(110,90)"/>
<path d="M0 0 C3.3 0.33 6.6 0.66 10 1 C6.66189518 2.66905241 3.53842155 3.8741386 0 5 C0 3.35 0 1.7 0 0 Z " fill="#B59465" transform="translate(0,119)"/>
<path d="M0 0 C0.33 0 0.66 0 1 0 C1 4.29 1 8.58 1 13 C0.01 12.67 -0.98 12.34 -2 12 C-1 3.42857143 -1 3.42857143 0 0 Z " fill="#949794" transform="translate(71,108)"/>
<path d="M0 0 C1.8125 0.1875 1.8125 0.1875 4 1 C7 5.17857143 7 5.17857143 7 8 C5.68 8 4.36 8 3 8 C1.92474806 5.34771188 0.90543849 2.71631546 0 0 Z " fill="#E9EDE8" transform="translate(77,108)"/>
<path d="M0 0 C2.64 0.33 5.28 0.66 8 1 C7.01 1.33 6.02 1.66 5 2 C4.26676204 4.01508358 4.26676204 4.01508358 4 6 C4 5.34 4 4.68 4 4 C2.35 3.67 0.7 3.34 -1 3 C-0.67 2.01 -0.34 1.02 0 0 Z " fill="#F4F2EA" transform="translate(67,55)"/>
<path d="M0 0 C0.82638376 2.89234315 1 4.88742431 1 8 C0.01 8 -0.98 8 -2 8 C-2 10.64 -2 13.28 -2 16 C-2.33 16 -2.66 16 -3 16 C-3.21663944 10.58401402 -3.16169806 6.08634837 -1 1 C-0.67 0.67 -0.34 0.34 0 0 Z " fill="#CBC1BA" transform="translate(21,43)"/>
<path d="M0 0 C0.33 0 0.66 0 1 0 C1.33 1.98 1.66 3.96 2 6 C1.34 6 0.68 6 0 6 C-0.22609337 8.12364481 -0.22609337 8.12364481 1.5 9.625 C1.995 10.07875 2.49 10.5325 3 11 C0.36 11 -2.28 11 -5 11 C-4.34 10.67 -3.68 10.34 -3 10 C-2.08968728 7.65613191 -2.08968728 7.65613191 -1.375 4.9375 C-1.11460938 4.01839844 -0.85421875 3.09929687 -0.5859375 2.15234375 C-0.39257812 1.44207031 -0.19921875 0.73179688 0 0 Z " fill="#614F44" transform="translate(110,76)"/>
<path d="M0 0 C1.45947705 0.06006078 2.91779272 0.1488689 4.375 0.25 C5.59316406 0.31960937 5.59316406 0.31960937 6.8359375 0.390625 C9 1 9 1 10.2890625 3.046875 C10.64097656 4.01367188 10.64097656 4.01367188 11 5 C10.34 5.66 9.68 6.32 9 7 C8.67 6.01 8.34 5.02 8 4 C5.36 3.67 2.72 3.34 0 3 C0 2.01 0 1.02 0 0 Z " fill="#C3C2BA" transform="translate(73,48)"/>
<path d="M0 0 C2.64 0 5.28 0 8 0 C7.67 2.31 7.34 4.62 7 7 C5.62437146 5.71034824 4.29233607 4.37310707 3 3 C3 2.34 3 1.68 3 1 C2.01 0.67 1.02 0.34 0 0 Z " fill="#A0A29E" transform="translate(60,108)"/>
<path d="M0 0 C0 3 0 3 -1 5 C-4.3 5 -7.6 5 -11 5 C-8.30992402 2.30992402 -5.63144185 1.97270764 -2 1 C-1.34 0.67 -0.68 0.34 0 0 Z " fill="#D4B99D" transform="translate(99,90)"/>
<path d="M0 0 C1.9375 0.75 1.9375 0.75 4 2 C4.75 4.125 4.75 4.125 5 6 C4.01 6.495 4.01 6.495 3 7 C3 6.34 3 5.68 3 5 C1.35 4.67 -0.3 4.34 -2 4 C-1.34 2.68 -0.68 1.36 0 0 Z " fill="#C6BAAC" transform="translate(32,88)"/>
<path d="M0 0 C2.015625 0.98828125 2.015625 0.98828125 4 3 C4.13117541 5.89480289 4.06318053 8.34153404 3.75 11.1875 C3.65138672 12.31188477 3.65138672 12.31188477 3.55078125 13.45898438 C3.38592263 15.30775601 3.19541184 17.15420773 3 19 C2.67 19 2.34 19 2 19 C1.93941406 18.04738281 1.87882812 17.09476563 1.81640625 16.11328125 C1.73261719 14.85902344 1.64882812 13.60476562 1.5625 12.3125 C1.48128906 11.07113281 1.40007812 9.82976563 1.31640625 8.55078125 C1.05508683 5.61819663 0.65201621 2.86558383 0 0 Z " fill="#938A84" transform="translate(108,52)"/>
<path d="M0 0 C0 0.99 0 1.98 0 3 C-4.95 2.67 -9.9 2.34 -15 2 C-15 1.67 -15 1.34 -15 1 C-9.92928099 0.28832014 -5.11791642 -0.10662326 0 0 Z " fill="#BCB7BD" transform="translate(128,36)"/>
<path d="M0 0 C0.33 0 0.66 0 1 0 C1.16157989 8.24057451 1.16157989 8.24057451 0.375 11.9375 C0.25125 12.618125 0.1275 13.29875 0 14 C0.66 14.66 1.32 15.32 2 16 C0.68 15.67 -0.64 15.34 -2 15 C-2.04241723 12.66705225 -2.04092937 10.33297433 -2 8 C-1.67 7.67 -1.34 7.34 -1 7 C-0.63239269 4.67182036 -0.29758419 2.3381615 0 0 Z " fill="#663D28" transform="translate(109,0)"/>
<path d="M0 0 C0.66 0.33 1.32 0.66 2 1 C-1.625 6.875 -1.625 6.875 -5 8 C-5.99 6.35 -6.98 4.7 -8 3 C-5.525 3.495 -5.525 3.495 -3 4 C-2.01 2.68 -1.02 1.36 0 0 Z " fill="#BFC0BB" transform="translate(62,120)"/>
<path d="M0 0 C2.31 0 4.62 0 7 0 C7 0.66 7 1.32 7 2 C5.02 2 3.04 2 1 2 C1 3.32 1 4.64 1 6 C0.01 6 -0.98 6 -2 6 C-1.34 4.02 -0.68 2.04 0 0 Z " fill="#8E8F8B" transform="translate(39,108)"/>
<path d="M0 0 C0 1.32 0 2.64 0 4 C-4.62 4 -9.24 4 -14 4 C-14 3.67 -14 3.34 -14 3 C-10.7 3 -7.4 3 -4 3 C-4 2.34 -4 1.68 -4 1 C-2 0 -2 0 0 0 Z " fill="#CBAC82" transform="translate(128,95)"/>
<path d="M0 0 C0.33 0.66 0.66 1.32 1 2 C0.01 2.66 -0.98 3.32 -2 4 C-2.33 4.99 -2.66 5.98 -3 7 C-6.0625 8.1875 -6.0625 8.1875 -9 9 C-9 8.34 -9 7.68 -9 7 C-7.68 6.67 -6.36 6.34 -5 6 C-4.67 4.35 -4.34 2.7 -4 1 C-2.68 0.67 -1.36 0.34 0 0 Z " fill="#CFC4B6" transform="translate(105,83)"/>
<path d="M0 0 C1.98 0 3.96 0 6 0 C5.67 1.65 5.34 3.3 5 5 C3.35 4.67 1.7 4.34 0 4 C0 2.68 0 1.36 0 0 Z " fill="#D3C4BB" transform="translate(46,64)"/>
<path d="M0 0 C1.32 0 2.64 0 4 0 C4 0.99 4 1.98 4 3 C-1.28 3 -6.56 3 -12 3 C-12 2.67 -12 2.34 -12 2 C-8.04 2 -4.08 2 0 2 C0 1.34 0 0.68 0 0 Z " fill="#351D2F" transform="translate(124,51)"/>
<path d="M0 0 C1.65 0 3.3 0 5 0 C5.33 1.32 5.66 2.64 6 4 C4.02 4 2.04 4 0 4 C0 2.68 0 1.36 0 0 Z " fill="#F3F5E9" transform="translate(96,124)"/>
<path d="M0 0 C2.01822917 0.06510417 4.03645833 0.13020833 6.0546875 0.1953125 C5.7246875 1.1853125 5.3946875 2.1753125 5.0546875 3.1953125 C2.9921875 3.8828125 2.9921875 3.8828125 1.0546875 4.1953125 C1.0546875 3.8653125 1.0546875 3.5353125 1.0546875 3.1953125 C-0.5953125 2.8653125 -2.2453125 2.5353125 -3.9453125 2.1953125 C-1.9453125 0.1953125 -1.9453125 0.1953125 0 0 Z " fill="#68343B" transform="translate(61.9453125,61.8046875)"/>
<path d="M0 0 C0.99 0.33 1.98 0.66 3 1 C2.2884375 1.5878125 2.2884375 1.5878125 1.5625 2.1875 C-0.35179633 4.40808374 -0.61266988 6.13375709 -1 9 C-1.33 8.01 -1.66 7.02 -2 6 C-2.66 6 -3.32 6 -4 6 C-3.6875 4.125 -3.6875 4.125 -3 2 C-2.01 1.34 -1.02 0.68 0 0 Z " fill="#949EA1" transform="translate(42,39)"/>
<path d="M0 0 C0.33 0 0.66 0 1 0 C1.125 6.75 1.125 6.75 0 9 C-1.32 8.67 -2.64 8.34 -4 8 C-3.34 7.67 -2.68 7.34 -2 7 C-1.39938767 5.09821215 -1.39938767 5.09821215 -1 3 C-0.67 2.01 -0.34 1.02 0 0 Z " fill="#F8FBF9" transform="translate(69,108)"/>
<path d="M0 0 C3.3 0 6.6 0 10 0 C10 0.66 10 1.32 10 2 C6.7 2.33 3.4 2.66 0 3 C0 2.01 0 1.02 0 0 Z " fill="#BD9B70" transform="translate(4,110)"/>
<path d="M0 0 C0.66 0 1.32 0 2 0 C2 0.66 2 1.32 2 2 C5.63 2.33 9.26 2.66 13 3 C13 3.33 13 3.66 13 4 C11.04196493 4.05389087 9.08351091 4.09274217 7.125 4.125 C6.03445312 4.14820312 4.94390625 4.17140625 3.8203125 4.1953125 C1 4 1 4 -1 2 C-0.67 1.34 -0.34 0.68 0 0 Z " fill="#CEB896" transform="translate(19,89)"/>
<path d="M0 0 C0.268125 0.639375 0.53625 1.27875 0.8125 1.9375 C1.88667752 4.33131686 1.88667752 4.33131686 5 5 C1.25 7 1.25 7 -1 7 C-1.04254356 5.00045254 -1.04080783 2.99958364 -1 1 C-0.67 0.67 -0.34 0.34 0 0 Z " fill="#DDD7C4" transform="translate(22,84)"/>
<path d="M0 0 C1.65 0 3.3 0 5 0 C5 0.99 5 1.98 5 3 C1.04 3 -2.92 3 -7 3 C-7 2.67 -7 2.34 -7 2 C-4.69 2 -2.38 2 0 2 C0 1.34 0 0.68 0 0 Z " fill="#50302A" transform="translate(123,80)"/>
<path d="M0 0 C3.94727588 -0.17942163 6.5980513 -0.09350689 10 2 C10 2.66 10 3.32 10 4 C3.47692308 3.38461538 3.47692308 3.38461538 1.0625 1.4375 C0.711875 0.963125 0.36125 0.48875 0 0 Z " fill="#462818" transform="translate(14,76)"/>
<path d="M0 0 C2.125 0.375 2.125 0.375 4 1 C4 1.66 4 2.32 4 3 C4.66 3.33 5.32 3.66 6 4 C4.02 4.33 2.04 4.66 0 5 C-0.66 4.01 -1.32 3.02 -2 2 C-1.34 1.34 -0.68 0.68 0 0 Z " fill="#D9B9B7" transform="translate(50,47)"/>
<path d="M0 0 C2.31 0 4.62 0 7 0 C7 0.99 7 1.98 7 3 C4.36 3 1.72 3 -1 3 C-0.67 2.01 -0.34 1.02 0 0 Z " fill="#261F34" transform="translate(121,41)"/>
<path d="M0 0 C0.66 0.66 1.32 1.32 2 2 C2.99 1.34 3.98 0.68 5 0 C5.33 0.99 5.66 1.98 6 3 C5.01 4.485 5.01 4.485 4 6 C2.68 5.34 1.36 4.68 0 4 C0 2.68 0 1.36 0 0 Z " fill="#DBDAD3" transform="translate(34,38)"/>
<path d="M0 0 C2.97 0 5.94 0 9 0 C9 0.66 9 1.32 9 2 C6.69 2.33 4.38 2.66 2 3 C1.34 2.01 0.68 1.02 0 0 Z " fill="#120F06" transform="translate(89,0)"/>
<path d="M0 0 C0.33 0.99 0.66 1.98 1 3 C4.465 2.505 4.465 2.505 8 2 C8 2.99 8 3.98 8 5 C5.36 5 2.72 5 0 5 C0 3.35 0 1.7 0 0 Z " fill="#AF9B81" transform="translate(88,123)"/>
<path d="M0 0 C1.65 0 3.3 0 5 0 C5 0.66 5 1.32 5 2 C6.65 2 8.3 2 10 2 C10 2.33 10 2.66 10 3 C8.35 3 6.7 3 5 3 C4.67 3.66 4.34 4.32 4 5 C4 4.34 4 3.68 4 3 C2.68 2.67 1.36 2.34 0 2 C0 1.34 0 0.68 0 0 Z " fill="#9E9F9A" transform="translate(35,117)"/>
<path d="M0 0 C2.97 0.495 2.97 0.495 6 1 C6.33 2.65 6.66 4.3 7 6 C4.525 5.01 4.525 5.01 2 4 C2 3.01 2 2.02 2 1 C1.34 0.67 0.68 0.34 0 0 Z " fill="#644947" transform="translate(10,16)"/>
<path d="M0 0 C1.125 3.75 1.125 3.75 0 6 C-1.32 6 -2.64 6 -4 6 C-2.25 1.125 -2.25 1.125 0 0 Z " fill="#EAEADE" transform="translate(34,122)"/>
<path d="M0 0 C1.98 0 3.96 0 6 0 C6 0.66 6 1.32 6 2 C4.35 2 2.7 2 1 2 C1 2.99 1 3.98 1 5 C-0.32 4.67 -1.64 4.34 -3 4 C-2.34 3.67 -1.68 3.34 -1 3 C-0.67 2.01 -0.34 1.02 0 0 Z " fill="#3B2C24" transform="translate(26,117)"/>
<path d="M0 0 C2.31 0 4.62 0 7 0 C6.67 0.99 6.34 1.98 6 3 C3.69 3 1.38 3 -1 3 C-0.67 2.01 -0.34 1.02 0 0 Z " fill="#D2CECC" transform="translate(61,101)"/>
<path d="M0 0 C1.98 0 3.96 0 6 0 C3.9927092 3.0109362 3.16115776 3.63016497 0 5 C0 3.35 0 1.7 0 0 Z " fill="#CAA87D" transform="translate(24,100)"/>
<path d="M0 0 C3.3 0 6.6 0 10 0 C6.99382731 3.00617269 4.17618402 2.59585316 0 3 C0 2.01 0 1.02 0 0 Z " fill="#896649" transform="translate(14,81)"/>
<path d="M0 0 C0.33 1.32 0.66 2.64 1 4 C1.99 4 2.98 4 4 4 C3.34 5.65 2.68 7.3 2 9 C1.34 9 0.68 9 0 9 C0 6.03 0 3.06 0 0 Z " fill="#38190B" transform="translate(0,78)"/>
<path d="M0 0 C0.33 0.99 0.66 1.98 1 3 C-2.3340947 5.19097652 -5.04179141 6.43454163 -9 7 C-6.19195732 4.03595495 -3.81684226 1.55500981 0 0 Z " fill="#CABDBB" transform="translate(66,66)"/>
<path d="M0 0 C6.52307692 0.61538462 6.52307692 0.61538462 8.9375 2.5625 C9.288125 3.036875 9.63875 3.51125 10 4 C6.53058454 3.54177532 3.32604951 3.10868317 0 2 C0 1.34 0 0.68 0 0 Z " fill="#684D4A" transform="translate(0,12)"/>
<path d="M0 0 C0.33 0.66 0.66 1.32 1 2 C0.34 2 -0.32 2 -1 2 C-1 2.99 -1 3.98 -1 5 C-2.32 5.33 -3.64 5.66 -5 6 C-5 4.68 -5 3.36 -5 2 C-3.35 1.34 -1.7 0.68 0 0 Z " fill="#926F4A" transform="translate(5,122)"/>
<path d="M0 0 C0.33 0.99 0.66 1.98 1 3 C-3.625 5.125 -3.625 5.125 -7 4 C-6.34 4 -5.68 4 -5 4 C-4.67 3.01 -4.34 2.02 -4 1 C-1.9375 0.3125 -1.9375 0.3125 0 0 Z " fill="#593828" transform="translate(14,121)"/>
<path d="M0 0 C0.598125 0.20625 1.19625 0.4125 1.8125 0.625 C0.1625 1.945 -1.4875 3.265 -3.1875 4.625 C-3.5175 4.295 -3.8475 3.965 -4.1875 3.625 C-4.8475 4.615 -5.5075 5.605 -6.1875 6.625 C-5.875 4.25 -5.875 4.25 -5.1875 1.625 C-2.1875 -0.375 -2.1875 -0.375 0 0 Z " fill="#CDC3B0" transform="translate(26.1875,81.375)"/>
<path d="M0 0 C0.99 0 1.98 0 3 0 C3 0.66 3 1.32 3 2 C3.66 2 4.32 2 5 2 C4.34 3.98 3.68 5.96 3 8 C2.71125 7.401875 2.4225 6.80375 2.125 6.1875 C0.95257974 3.80672208 0.95257974 3.80672208 -1 1 C-0.67 0.67 -0.34 0.34 0 0 Z " fill="#E5DAD3" transform="translate(68,59)"/>
<path d="M0 0 C2 0 2 0 3.9375 1.8125 C4.618125 2.534375 5.29875 3.25625 6 4 C6.5775 4.5775 7.155 5.155 7.75 5.75 C8.1625 6.1625 8.575 6.575 9 7 C4.71193127 6.52354792 2.73352513 5.34097516 0 2 C0 1.34 0 0.68 0 0 Z " fill="#2C1114" transform="translate(0,40)"/>
<path d="M0 0 C2.95409701 1.37154504 5.44008376 2.98863724 8 5 C7.67 5.66 7.34 6.32 7 7 C3.535 5.02 3.535 5.02 0 3 C0 2.01 0 1.02 0 0 Z " fill="#4C2F2F" transform="translate(0,37)"/>
<path d="M0 0 C0.33 0 0.66 0 1 0 C1 3.63 1 7.26 1 11 C-0.32 10.34 -1.64 9.68 -3 9 C-2.34 9 -1.68 9 -1 9 C-0.67 6.03 -0.34 3.06 0 0 Z " fill="#B6B8B0" transform="translate(87,106)"/>
<path d="M0 0 C1.65 0.33 3.3 0.66 5 1 C5 1.66 5 2.32 5 3 C6.65 3 8.3 3 10 3 C10 3.33 10 3.66 10 4 C8.02 4 6.04 4 4 4 C4 3.34 4 2.68 4 2 C2.35 2.33 0.7 2.66 -1 3 C-0.67 2.01 -0.34 1.02 0 0 Z " fill="#C4AC90" transform="translate(22,113)"/>
<path d="M0 0 C2.64 0 5.28 0 8 0 C5.6875 2.0625 5.6875 2.0625 3 4 C2.01 3.67 1.02 3.34 0 3 C0 2.01 0 1.02 0 0 Z " fill="#AD8B60" transform="translate(0,109)"/>
<path d="M0 0 C-2 2 -2 2 -3.9453125 2.1953125 C-5.96354167 2.13020833 -7.98177083 2.06510417 -10 2 C-3.75 -1.125 -3.75 -1.125 0 0 Z " fill="#86654C" transform="translate(16,120)"/>
<path d="M0 0 C2.97 0 5.94 0 9 0 C8.67 0.66 8.34 1.32 8 2 C4.9375 2.625 4.9375 2.625 2 3 C2 2.34 2 1.68 2 1 C1.34 0.67 0.68 0.34 0 0 Z " fill="#AF8E67" transform="translate(8,117)"/>
<path d="M0 0 C-0.33 0.66 -0.66 1.32 -1 2 C-2.98 2 -4.96 2 -7 2 C-7.33 1.34 -7.66 0.68 -8 0 C-4.94736336 -0.98120464 -3.05263664 -0.98120464 0 0 Z " fill="#D7C6B3" transform="translate(31,90)"/>
<path d="M0 0 C4.75 0.75 4.75 0.75 7 3 C4.36 3 1.72 3 -1 3 C-0.67 2.01 -0.34 1.02 0 0 Z " fill="#452420" transform="translate(115,74)"/>
<path d="M0 0 C2.6855594 2.6855594 3.06049974 5.37621328 4 9 C2.68 8.34 1.36 7.68 0 7 C0 4.69 0 2.38 0 0 Z " fill="#5E433F" transform="translate(0,30)"/>
<path d="M0 0 C0.99 0 1.98 0 3 0 C3 1.65 3 3.3 3 5 C1.68 4.67 0.36 4.34 -1 4 C-0.67 2.68 -0.34 1.36 0 0 Z " fill="#341004" transform="translate(109,10)"/>
<path d="M0 0 C0.66 0 1.32 0 2 0 C2 1.65 2 3.3 2 5 C-0.31 4.67 -2.62 4.34 -5 4 C-2 2 -2 2 0 2 C0 1.34 0 0.68 0 0 Z " fill="#5D3622" transform="translate(98,0)"/>
</svg>
